STARTFONT 2.1
COMMENT
COMMENT Converted from OpenType font "Q:\font stuff\winfont\Vertigo 2 BRK.ttf" by "otf2bdf 3.0".
COMMENT
FONT -FreeType-Vertigo 2 BRK-Medium-R-Normal--52-520-72-72-P-475-ISO10646-1
SIZE 52 72 72
FONTBOUNDINGBOX 63 52 0 -9
STARTPROPERTIES 19
FOUNDRY "FreeType"
FAMILY_NAME "Vertigo 2 BRK"
WEIGHT_NAME "Medium"
SLANT "R"
SETWIDTH_NAME "Normal"
ADD_STYLE_NAME ""
PIXEL_SIZE 52
POINT_SIZE 520
RESOLUTION_X 72
RESOLUTION_Y 72
SPACING "P"
AVERAGE_WIDTH 475
CHARSET_REGISTRY "ISO10646"
CHARSET_ENCODING "1"
FONT_ASCENT 42
FONT_DESCENT 12
COPYRIGHT "ÆNIGMA FONTS   [e-mail]  kentpw@norwich.net"
_OTF_FONTFILE "Q:\font stuff\winfont\Vertigo 2 BRK.ttf"
_OTF_PSNAME "Vertigo2BRK"
ENDPROPERTIES
CHARS 112
STARTCHAR 0020
ENCODING 32
SWIDTH 788 0
DWIDTH 41 0
BBX 0 0 0 0
BITMAP
ENDCHAR
STARTCHAR 0021
ENCODING 33
SWIDTH 1057 0
DWIDTH 55 0
BBX 52 13 2 9
BITMAP
FFFFFFFF01FFF0
FFFFFFFF01FFF0
FFFFFFFF01FFF0
FFFFFFFF01FFF0
FFFFFFFF01FFF0
FFFFFFFF01FFF0
FFFFFFFF01FFF0
FFFFFFFF01FFF0
FFFFFFFF01FFF0
FFFFFFFF01FFF0
FFFFFFFF01FFF0
FFFFFFFF01FFF0
FFFFFFFF01FFF0
ENDCHAR
STARTCHAR 0022
ENCODING 34
SWIDTH 403 0
DWIDTH 21 0
BBX 17 33 2 0
BITMAP
FFFF80
FFFF80
FFFF80
FFFF80
FFFF80
FFFF80
FFFF80
FFFF80
FFFF80
FFFF80
FFFF80
FFFF80
FFFF80
FFFF80
000000
000000
000000
000000
000000
000000
FFFF80
FFFF80
FFFF80
FFFF80
FFFF80
FFFF80
FFFF80
FFFF80
FFFF80
FFFF80
FFFF80
FFFF80
FFFF80
ENDCHAR
STARTCHAR 0023
ENCODING 35
SWIDTH 1057 0
DWIDTH 55 0
BBX 52 52 2 -9
BITMAP
007FFC07FFC000
007FFC07FFC000
007FFC07FFC000
007FFC07FFC000
007FFC07FFC000
007FFC07FFC000
007FFC07FFC000
007FFC07FFC000
007FFC07FFC000
007FFC07FFFFF0
FFFFFFFFFFFFF0
FFFFFFFFFFFFF0
FFFFFFFFFFFFF0
FFFFFFFFFFFFF0
FFFFFFFFFFFFF0
FFFFFFFFFFFFF0
FFFFFFFFFFFFF0
FFFFFFFFFFFFF0
FFFFFFFFFFFFF0
FFFFFFFFFFFFF0
FFFFFFFFFFFFF0
FFFFFFFFFFFFF0
FFFFFC07FFC000
007FFC07FFC000
007FFC07FFC000
007FFC07FFC000
007FFC07FFC000
007FFC07FFC000
007FFC07FFC000
FFFFFFFFFFFFF0
FFFFFFFFFFFFF0
FFFFFFFFFFFFF0
FFFFFFFFFFFFF0
FFFFFFFFFFFFF0
FFFFFFFFFFFFF0
FFFFFFFFFFFFF0
FFFFFFFFFFFFF0
FFFFFFFFFFFFF0
FFFFFFFFFFFFF0
FFFFFFFFFFFFF0
FFFFFFFFFFFFF0
FFFFFFFFFFFFF0
007FFC07FFC000
007FFC07FFC000
007FFC07FFC000
007FFC07FFC000
007FFC07FFC000
007FFC07FFC000
007FFC07FFC000
007FFC07FFC000
007FFC07FFC000
007FFC07FFC000
ENDCHAR
STARTCHAR 0024
ENCODING 36
SWIDTH 1250 0
DWIDTH 65 0
BBX 61 52 2 -9
BITMAP
0FFF80001FFC0000
0FFF8000FFFF0000
0FFF8001FFFFC000
0FFF8007FFFFE000
0FFF800FFFFFF000
0FFF801FFFFFF800
0FFF801FFFFFFC00
0FFF803FFFFFFC00
0FFF803FFFFFFE00
0FFF807FFFFFFE00
0FFF807FFFFFFE00
0FFF807FFFFFFF00
0FFF80FFFFFFFF00
0FFF80FFFC3FFF00
0FFF80FFF81FFF00
0FFF80FFF81FFF00
0FFF80FFF81FFF00
0FFF80FFF81FFF00
0FFF80FFF81FFF00
FFFF80FFF81FFFF8
FFFF80FFF81FFFF8
FFFF80FFF81FFFF8
FFFF80FFF81FFFF8
FFFF80FFF81FFFF8
FFFF80FFF81FFFF8
FFFF80FFF81FFFF8
FFFF80FFF81FFFF8
FFFF80FFF81FFFF8
FFFF80FFF81FFFF8
FFFF80FFF81FFFF8
FFFF80FFF81FFFF8
FFFF80FFF81FFFF8
0FFF80FFF81FFF00
0FFF80FFF81FFF00
0FFF80FFF81FFF00
0FFF80FFF81FFF00
07FFC0FFF81FFF00
07FFC1FFF81FFF00
07FFF3FFF81FFF00
07FFFFFFF01FFF00
07FFFFFFF01FFF00
03FFFFFFF01FFF00
03FFFFFFE01FFF00
03FFFFFFE01FFF00
01FFFFFFC01FFF00
00FFFFFFC01FFF00
00FFFFFF801FFF00
007FFFFF001FFF00
001FFFFE001FFF00
000FFFF8001FFF00
0003FFE0001FFF00
00000C00001FFF00
ENDCHAR
STARTCHAR 0025
ENCODING 37
SWIDTH 1057 0
DWIDTH 55 0
BBX 52 52 2 -9
BITMAP
000000000FF000
000000003FFC00
000000007FFF00
00000000FFFF80
80000001FFFF80
E0000003FFFFC0
F8000003FFFFE0
FE000007FFFFE0
FF000007FFFFE0
FFC00007FFFFE0
FFF00007FE3FF0
FFF80007FE3FF0
FFFE0007FF7FE0
FFFF8007FFFFE0
FFFFE007FFFFE0
FFFFF003FFFFE0
FFFFFC03FFFFC0
FFFFFF01FFFFC0
7FFFFF81FFFF80
1FFFFFE0FFFF00
0FFFFFF83FFE00
03FFFFFE1FF800
00FFFFFF000000
003FFFFFC00000
001FFFFFF00000
0007FFFFF80000
0001FFFFFE0000
0000FFFFFF8000
00003FFFFFE000
00FC0FFFFFF000
07FF83FFFFFC00
0FFFC1FFFFFF00
1FFFE07FFFFF80
3FFFF01FFFFFE0
7FFFF807FFFFF0
7FFFF803FFFFF0
FFFFFC00FFFFF0
FFFFFC003FFFF0
FFFFFC001FFFF0
FFCFFC0007FFF0
FF87FC0001FFF0
FFCFFC00007FF0
FFFFFC00003FF0
FFFFFC00000FF0
FFFFF8000003F0
7FFFF8000001F0
7FFFF000000070
3FFFF000000010
1FFFE000000000
0FFF8000000000
03FF0000000000
00300000000000
ENDCHAR
STARTCHAR 0026
ENCODING 38
SWIDTH 1250 0
DWIDTH 65 0
BBX 61 52 2 -9
BITMAP
0FFF8000001FFF00
0FFF8000001FFF00
0FFF8000001FFF00
0FFF8000001FFF00
0FFF8000001FFF00
0FFF8000001FFF00
0FFF8000001FFF00
0FFF8000001FFF00
0FFF8000001FFF00
0FFF8000001FFF00
0FFF8000001FFF00
0FFF8000001FFF00
0FFF8000001FFF00
0FFF8000001FFF00
0FFF8000001FFF00
0FFF8000001FFF00
0FFF8000001FFF00
0FFF8000001FFF00
0FFF8000001FFF00
FFFF8000001FFFF8
FFFF8000001FFFF8
FFFF8000001FFFF8
FFFF8000001FFFF8
FFFF8000001FFFF8
FFFF80FFF81FFFF8
FFFF80FFF81FFFF8
FFFF80FFF81FFFF8
FFFF80FFF81FFFF8
FFFF80FFF81FFFF8
FFFF80FFF81FFFF8
FFFF80FFF81FFFF8
FFFF80FFF81FFFF8
0FFF80FFF81FFF00
0FFF80FFF81FFF00
0FFF80FFF81FFF00
0FFF80FFF81FFF00
07FFC0FFF81FFF00
07FFC1FFFC1FFF00
07FFF3FFFE7FFF00
07FFFFFFFFFFFF00
07FFFFFFFFFFFF00
03FFFFFFFFFFFE00
03FFFFFFFFFFFE00
03FFFFFFFFFFFC00
01FFFFFFFFFFFC00
00FFFFFFFFFFF800
00FFFFFFFFFFF000
007FFFFFFFFFE000
001FFFFFFFFFC000
000FFFF8FFFF8000
0003FFE03FFE0000
00000C0001800000
ENDCHAR
STARTCHAR 0027
ENCODING 39
SWIDTH 403 0
DWIDTH 21 0
BBX 17 13 2 9
BITMAP
FFFF80
FFFF80
FFFF80
FFFF80
FFFF80
FFFF80
FFFF80
FFFF80
FFFF80
FFFF80
FFFF80
FFFF80
FFFF80
ENDCHAR
STARTCHAR 0028
ENCODING 40
SWIDTH 1057 0
DWIDTH 55 0
BBX 52 23 2 4
BITMAP
FFF8000001FFF0
FFF8000001FFF0
FFF8000001FFF0
FFF8000001FFF0
FFF8000001FFF0
FFF8000001FFF0
FFF8000001FFF0
FFF8000003FFF0
FFF8000003FFF0
FFFC000007FFE0
FFFFFFFFFFFFE0
FFFFFFFFFFFFE0
7FFFFFFFFFFFE0
7FFFFFFFFFFFC0
7FFFFFFFFFFFC0
3FFFFFFFFFFF80
3FFFFFFFFFFF80
1FFFFFFFFFFF00
0FFFFFFFFFFE00
07FFFFFFFFFC00
03FFFFFFFFF000
00FFFFFFFFC000
001FFFFFFE0000
ENDCHAR
STARTCHAR 0029
ENCODING 41
SWIDTH 1057 0
DWIDTH 55 0
BBX 52 23 2 4
BITMAP
0003FFFFF80000
007FFFFFFF8000
01FFFFFFFFF000
03FFFFFFFFF800
0FFFFFFFFFFE00
0FFFFFFFFFFF00
1FFFFFFFFFFF00
3FFFFFFFFFFF80
3FFFFFFFFFFFC0
7FFFFFFFFFFFC0
7FFFFFFFFFFFE0
FFFFFFFFFFFFE0
FFFFFFFFFFFFE0
FFFE00000FFFE0
FFF8000003FFE0
FFF8000003FFF0
FFF8000001FFF0
FFF8000001FFF0
FFF8000001FFF0
FFF8000001FFF0
FFF8000001FFF0
FFF8000001FFF0
FFF8000001FFF0
ENDCHAR
STARTCHAR 002A
ENCODING 42
SWIDTH 865 0
DWIDTH 45 0
BBX 42 43 2 -5
BITMAP
000038000000
0001F8000000
001FF8000000
00FFFC000000
00FFFC004000
007FFC00E000
007FFE01F000
007FFE07F000
003FFE0FF800
003FFF3FFC00
003FFF7FFE00
001FFFFFFE00
001FFFFFFF00
001FFFFFFF80
000FFFFFFFC0
FFFFFFFFFF00
FFFFFFFFFE00
FFFFFFFFFC00
FFFFFFFFF000
FFFFFFFFE000
FFFFFFFF8000
FFFFFFFF0000
FFFFFFFF8000
FFFFFFFFC000
FFFFFFFFF000
FFFFFFFFF800
FFFFFFFFFC00
FFFFFFFFFF00
000FFFFFFF80
001FFFFFFF80
001FFFFFFF00
001FFFFFFF00
003FFFFFFE00
003FFF3FFC00
003FFE1FF800
007FFE07F800
007FFE03F000
007FFC01E000
00FFFC006000
00FFFC000000
003FF8000000
0007F8000000
000078000000
ENDCHAR
STARTCHAR 002B
ENCODING 43
SWIDTH 692 0
DWIDTH 36 0
BBX 32 33 2 0
BITMAP
007FFC00
007FFC00
007FFC00
007FFC00
007FFC00
007FFC00
007FFC00
007FFC00
007FFC00
007FFC00
FFFFFFFF
FFFFFFFF
FFFFFFFF
FFFFFFFF
FFFFFFFF
FFFFFFFF
FFFFFFFF
FFFFFFFF
FFFFFFFF
FFFFFFFF
FFFFFFFF
FFFFFFFF
FFFFFFFF
007FFC00
007FFC00
007FFC00
007FFC00
007FFC00
007FFC00
007FFC00
007FFC00
007FFC00
007FFC00
ENDCHAR
STARTCHAR 002C
ENCODING 44
SWIDTH 403 0
DWIDTH 21 0
BBX 17 18 2 4
BITMAP
F80000
FF0000
FFC000
FFE000
FFF800
FFFC00
FFFC00
FFFE00
FFFE00
FFFF00
FFFF00
FFFF80
FFFF80
1FFF80
0FFF80
0FFF80
0FFF80
0FFF80
ENDCHAR
STARTCHAR 002D
ENCODING 45
SWIDTH 307 0
DWIDTH 16 0
BBX 13 33 2 0
BITMAP
FFF8
FFF8
FFF8
FFF8
FFF8
FFF8
FFF8
FFF8
FFF8
FFF8
FFF8
FFF8
FFF8
FFF8
FFF8
FFF8
FFF8
FFF8
FFF8
FFF8
FFF8
FFF8
FFF8
FFF8
FFF8
FFF8
FFF8
FFF8
FFF8
FFF8
FFF8
FFF8
FFF8
ENDCHAR
STARTCHAR 002E
ENCODING 46
SWIDTH 307 0
DWIDTH 16 0
BBX 13 13 2 9
BITMAP
FFF8
FFF8
FFF8
FFF8
FFF8
FFF8
FFF8
FFF8
FFF8
FFF8
FFF8
FFF8
FFF8
ENDCHAR
STARTCHAR 002F
ENCODING 47
SWIDTH 1057 0
DWIDTH 55 0
BBX 52 44 2 -5
BITMAP
80000000000000
E0000000000000
F8000000000000
FE000000000000
FF000000000000
FFC00000000000
FFF00000000000
FFF80000000000
FFFE0000000000
FFFF8000000000
FFFFE000000000
FFFFF000000000
FFFFFC00000000
FFFFFF00000000
7FFFFF80000000
1FFFFFE0000000
0FFFFFF8000000
03FFFFFE000000
00FFFFFF000000
003FFFFFC00000
001FFFFFF00000
0007FFFFF80000
0001FFFFFE0000
0000FFFFFF8000
00003FFFFFE000
00000FFFFFF000
000003FFFFFC00
000001FFFFFF00
0000007FFFFF80
0000001FFFFFE0
00000007FFFFF0
00000003FFFFF0
00000000FFFFF0
000000003FFFF0
000000001FFFF0
0000000007FFF0
0000000001FFF0
00000000007FF0
00000000003FF0
00000000000FF0
000000000003F0
000000000001F0
00000000000070
00000000000010
ENDCHAR
STARTCHAR 0030
ENCODING 48
SWIDTH 1057 0
DWIDTH 55 0
BBX 52 52 2 -9
BITMAP
00001FFF000000
0000FFFFE00000
0003FFFFF80000
000FFFFFFE0000
003FFFFFFF8000
007FFFFFFFC000
00FFFFFFFFE000
01FFFFFFFFF000
03FFFFFFFFF800
07FFFFFFFFFC00
0FFFFFFFFFFE00
0FFFFFFFFFFE00
1FFFFFFFFFFF00
1FFFF803FFFF80
3FFFE000FFFF80
3FFFC0003FFFC0
7FFF00001FFFC0
7FFE00000FFFC0
FFFE00000FFFE0
FFFC000007FFE0
FFFC000007FFE0
FFF8000003FFE0
FFF8000003FFE0
FFF8000003FFE0
FFF8000001FFF0
FFF8000001FFF0
FFF8000001FFF0
FFF8000003FFF0
FFF8000003FFE0
FFF8000003FFE0
FFF8000003FFE0
FFFC000007FFE0
FFFC000007FFE0
7FFE00000FFFC0
7FFF00001FFFC0
7FFF80003FFFC0
3FFFC0007FFF80
3FFFF001FFFF80
1FFFFE0FFFFF00
0FFFFFFFFFFF00
0FFFFFFFFFFE00
07FFFFFFFFFC00
03FFFFFFFFF800
01FFFFFFFFF000
00FFFFFFFFE000
007FFFFFFFC000
003FFFFFFF8000
001FFFFFFF0000
0007FFFFFC0000
0001FFFFF00000
00003FFF800000
00000040000000
ENDCHAR
STARTCHAR 0031
ENCODING 49
SWIDTH 1057 0
DWIDTH 55 0
BBX 52 13 2 9
BITMAP
FFFFFFFFFFFFF0
FFFFFFFFFFFFF0
FFFFFFFFFFFFF0
FFFFFFFFFFFFF0
FFFFFFFFFFFFF0
FFFFFFFFFFFFF0
FFFFFFFFFFFFF0
FFFFFFFFFFFFF0
FFFFFFFFFFFFF0
FFFFFFFFFFFFF0
FFFFFFFFFFFFF0
FFFFFFFFFFFFF0
FFFFFFFFFFFFF0
ENDCHAR
STARTCHAR 0032
ENCODING 50
SWIDTH 1057 0
DWIDTH 55 0
BBX 52 52 2 -9
BITMAP
003FF80001FFF0
00FFFF0001FFF0
03FFFF8001FFF0
07FFFFE001FFF0
0FFFFFF001FFF0
1FFFFFF801FFF0
3FFFFFF801FFF0
3FFFFFFC01FFF0
7FFFFFFC01FFF0
7FFFFFFE01FFF0
7FFFFFFE01FFF0
FFFFFFFE01FFF0
FFFFFFFF01FFF0
FFFC3FFF01FFF0
FFF81FFF01FFF0
FFF81FFF01FFF0
FFF81FFF01FFF0
FFF81FFF01FFF0
FFF81FFF01FFF0
FFF81FFF01FFF0
FFF81FFF01FFF0
FFF81FFF01FFF0
FFF81FFF01FFF0
FFF81FFF01FFF0
FFF81FFF01FFF0
FFF81FFF01FFF0
FFF81FFF01FFF0
FFF81FFF01FFF0
FFF81FFF01FFF0
FFF81FFF01FFF0
FFF81FFF01FFF0
FFF81FFF01FFF0
FFF81FFF01FFF0
FFF81FFF01FFF0
FFF81FFF01FFF0
FFF81FFF01FFF0
FFF81FFF01FFF0
FFF81FFF81FFF0
FFF81FFFC1FFF0
FFF81FFFFFFFF0
FFF80FFFFFFFF0
FFF80FFFFFFFF0
FFF80FFFFFFFF0
FFF807FFFFFFF0
FFF803FFFFFFF0
FFF803FFFFFFF0
FFF801FFFFFFF0
FFF800FFFFFFF0
FFF8007FFFFFF0
FFF8001FFFFFF0
FFF80003FFFFF0
FFF800001FFFF0
ENDCHAR
STARTCHAR 0033
ENCODING 51
SWIDTH 1057 0
DWIDTH 55 0
BBX 52 52 2 -9
BITMAP
003FF803FF8000
00FFFF1FFFE000
03FFFFBFFFF800
07FFFFFFFFFC00
0FFFFFFFFFFE00
1FFFFFFFFFFF00
3FFFFFFFFFFF80
3FFFFFFFFFFF80
7FFFFFFFFFFFC0
7FFFFFFFFFFFC0
7FFFFFFFFFFFE0
FFFFFFFFFFFFE0
FFFFFFFFFFFFE0
FFFC3FFF83FFE0
FFF81FFF03FFE0
FFF81FFF01FFF0
FFF81FFF01FFF0
FFF81FFF01FFF0
FFF81FFF01FFF0
FFF81FFF01FFF0
FFF81FFF01FFF0
FFF81FFF01FFF0
FFF81FFF01FFF0
FFF81FFF01FFF0
FFF81FFF01FFF0
FFF81FFF01FFF0
FFF81FFF01FFF0
FFF8000001FFF0
FFF8000001FFF0
FFF8000001FFF0
FFF8000001FFF0
FFF8000001FFF0
FFF8000001FFF0
FFF8000001FFF0
FFF8000001FFF0
FFF8000001FFF0
FFF8000001FFF0
FFF8000001FFF0
FFF8000001FFF0
FFF8000001FFF0
FFF8000001FFF0
FFF8000001FFF0
FFF8000001FFF0
FFF8000001FFF0
FFF8000001FFF0
FFF8000001FFF0
FFF8000001FFF0
FFF8000001FFF0
FFF8000001FFF0
FFF8000001FFF0
FFF8000001FFF0
FFF8000001FFF0
ENDCHAR
STARTCHAR 0034
ENCODING 52
SWIDTH 1057 0
DWIDTH 55 0
BBX 52 52 2 -9
BITMAP
FFFFFFFFFFFFF0
FFFFFFFFFFFFF0
FFFFFFFFFFFFF0
FFFFFFFFFFFFF0
FFFFFFFFFFFFF0
FFFFFFFFFFFFF0
FFFFFFFFFFFFF0
FFFFFFFFFFFFF0
FFFFFFFFFFFFF0
FFFFFFFFFFFFF0
FFFFFFFFFFFFF0
FFFFFFFFFFFFF0
FFFFFFFFFFFFF0
00001FFF000000
00001FFF000000
00001FFF000000
00001FFF000000
00001FFF000000
00001FFF000000
00001FFF000000
00001FFF000000
00001FFF000000
00001FFF000000
00001FFF000000
00001FFF000000
00001FFF000000
00001FFF000000
00001FFF000000
00001FFF000000
00001FFF000000
00001FFF000000
00001FFF000000
00001FFF000000
00001FFF000000
00001FFF000000
00001FFF000000
00001FFF000000
00003FFF000000
00007FFF000000
FFFFFFFF000000
FFFFFFFE000000
FFFFFFFE000000
FFFFFFFE000000
FFFFFFFC000000
FFFFFFFC000000
FFFFFFF8000000
FFFFFFF0000000
FFFFFFE0000000
FFFFFFC0000000
FFFFFF00000000
FFFFFC00000000
FFFF8000000000
ENDCHAR
STARTCHAR 0035
ENCODING 53
SWIDTH 1057 0
DWIDTH 55 0
BBX 52 52 2 -9
BITMAP
FFF80003FF8000
FFF8001FFFE000
FFF8003FFFF800
FFF800FFFFFC00
FFF801FFFFFE00
FFF801FFFFFF00
FFF803FFFFFF80
FFF807FFFFFF80
FFF807FFFFFFC0
FFF80FFFFFFFC0
FFF80FFFFFFFE0
FFF80FFFFFFFE0
FFF81FFFFFFFE0
FFF81FFF83FFE0
FFF81FFF03FFE0
FFF81FFF01FFF0
FFF81FFF01FFF0
FFF81FFF01FFF0
FFF81FFF01FFF0
FFF81FFF01FFF0
FFF81FFF01FFF0
FFF81FFF01FFF0
FFF81FFF01FFF0
FFF81FFF01FFF0
FFF81FFF01FFF0
FFF81FFF01FFF0
FFF81FFF01FFF0
FFF81FFF01FFF0
FFF81FFF01FFF0
FFF81FFF01FFF0
FFF81FFF01FFF0
FFF81FFF01FFF0
FFF81FFF01FFF0
FFF81FFF01FFF0
FFF81FFF01FFF0
FFF81FFF01FFF0
FFF81FFF01FFF0
FFF83FFF01FFF0
FFF87FFF01FFF0
FFFFFFFF01FFF0
FFFFFFFE01FFF0
FFFFFFFE01FFF0
FFFFFFFE01FFF0
FFFFFFFC01FFF0
FFFFFFFC01FFF0
FFFFFFF801FFF0
FFFFFFF001FFF0
FFFFFFE001FFF0
FFFFFFC001FFF0
FFFFFF0001FFF0
FFFFFC0001FFF0
FFFF800001FFF0
ENDCHAR
STARTCHAR 0036
ENCODING 54
SWIDTH 1057 0
DWIDTH 55 0
BBX 52 52 2 -9
BITMAP
FFF80003FF8000
FFF8001FFFE000
FFF8003FFFF800
FFF800FFFFFC00
FFF801FFFFFE00
FFF801FFFFFF00
FFF803FFFFFF80
FFF807FFFFFF80
FFF807FFFFFFC0
FFF80FFFFFFFC0
FFF80FFFFFFFE0
FFF80FFFFFFFE0
FFF81FFFFFFFE0
FFF81FFF83FFE0
FFF81FFF03FFE0
FFF81FFF01FFF0
FFF81FFF01FFF0
FFF81FFF01FFF0
FFF81FFF01FFF0
FFF81FFF01FFF0
FFF81FFF01FFF0
FFF81FFF01FFF0
FFF81FFF01FFF0
FFF81FFF01FFF0
FFF81FFF01FFF0
FFF81FFF01FFF0
FFF81FFF01FFF0
FFF81FFF01FFF0
FFF81FFF01FFF0
FFF81FFF01FFF0
FFF81FFF01FFF0
FFF81FFF01FFF0
FFF81FFF01FFF0
FFF81FFF01FFF0
FFF81FFF01FFF0
FFF81FFF01FFF0
FFF81FFF03FFF0
FFF81FFF03FFE0
FFFE1FFF0FFFE0
FFFFFFFFFFFFE0
FFFFFFFFFFFFE0
7FFFFFFFFFFFE0
7FFFFFFFFFFFC0
3FFFFFFFFFFFC0
3FFFFFFFFFFF80
1FFFFFFFFFFF00
0FFFFFFFFFFF00
07FFFFFFFFFE00
03FFFFFFFFF800
01FFFFFFFFE000
007FFFFFFF8000
0001FFFFF00000
ENDCHAR
STARTCHAR 0037
ENCODING 55
SWIDTH 1057 0
DWIDTH 55 0
BBX 52 52 2 -9
BITMAP
003FFFFFFFFFF0
00FFFFFFFFFFF0
03FFFFFFFFFFF0
07FFFFFFFFFFF0
0FFFFFFFFFFFF0
1FFFFFFFFFFFF0
3FFFFFFFFFFFF0
3FFFFFFFFFFFF0
7FFFFFFFFFFFF0
7FFFFFFFFFFFF0
7FFFFFFFFFFFF0
FFFFFFFFFFFFF0
FFFFFFFFFFFFF0
FFFC0000000000
FFF80000000000
FFF80000000000
FFF80000000000
FFF80000000000
FFF80000000000
FFF80000000000
FFF80000000000
FFF80000000000
FFF80000000000
FFF80000000000
FFF80000000000
FFF80000000000
FFF80000000000
FFF80000000000
FFF80000000000
FFF80000000000
FFF80000000000
FFF80000000000
FFF80000000000
FFF80000000000
FFF80000000000
FFF80000000000
FFF80000000000
FFF80000000000
FFF80000000000
FFF80000000000
FFF80000000000
FFF80000000000
FFF80000000000
FFF80000000000
FFF80000000000
FFF80000000000
FFF80000000000
FFF80000000000
FFF80000000000
FFF80000000000
FFF80000000000
FFF80000000000
ENDCHAR
STARTCHAR 0038
ENCODING 56
SWIDTH 1057 0
DWIDTH 55 0
BBX 52 52 2 -9
BITMAP
003FF803FF8000
00FFFF1FFFE000
03FFFFBFFFF800
07FFFFFFFFFC00
0FFFFFFFFFFE00
1FFFFFFFFFFF00
3FFFFFFFFFFF80
3FFFFFFFFFFF80
7FFFFFFFFFFFC0
7FFFFFFFFFFFC0
7FFFFFFFFFFFE0
FFFFFFFFFFFFE0
FFFFFFFFFFFFE0
FFFC3FFF83FFE0
FFF81FFF03FFE0
FFF81FFF01FFF0
FFF81FFF01FFF0
FFF81FFF01FFF0
FFF81FFF01FFF0
FFF81FFF01FFF0
FFF81FFF01FFF0
FFF81FFF01FFF0
FFF81FFF01FFF0
FFF81FFF01FFF0
FFF81FFF01FFF0
FFF81FFF01FFF0
FFF81FFF01FFF0
FFF81FFF01FFF0
FFF81FFF01FFF0
FFF81FFF01FFF0
FFF81FFF01FFF0
FFF81FFF01FFF0
FFF81FFF01FFF0
FFF81FFF01FFF0
FFF81FFF01FFF0
FFF81FFF01FFF0
FFF81FFF03FFE0
FFF83FFF83FFE0
FFFE7FFFCFFFE0
FFFFFFFFFFFFE0
FFFFFFFFFFFFE0
7FFFFFFFFFFFC0
7FFFFFFFFFFFC0
3FFFFFFFFFFF80
3FFFFFFFFFFF80
1FFFFFFFFFFF00
0FFFFFFFFFFE00
07FFFFFFFFFC00
03FFFFFFFFF800
01FFFF1FFFF000
007FFC07FFC000
00018000300000
ENDCHAR
STARTCHAR 0039
ENCODING 57
SWIDTH 1057 0
DWIDTH 55 0
BBX 52 52 2 -9
BITMAP
001FFFFFFFFFF0
00FFFFFFFFFFF0
03FFFFFFFFFFF0
07FFFFFFFFFFF0
0FFFFFFFFFFFF0
1FFFFFFFFFFFF0
3FFFFFFFFFFFF0
3FFFFFFFFFFFF0
7FFFFFFFFFFFF0
7FFFFFFFFFFFF0
FFFFFFFFFFFFF0
FFFFFFFFFFFFF0
FFFFFFFFFFFFF0
FFFC1FFF000000
FFF81FFF000000
FFF81FFF000000
FFF81FFF000000
FFF81FFF000000
FFF81FFF000000
FFF81FFF000000
FFF81FFF000000
FFF81FFF000000
FFF81FFF000000
FFF81FFF000000
FFF81FFF000000
FFF81FFF000000
FFF81FFF000000
FFF81FFF000000
FFF81FFF000000
FFF81FFF000000
FFF81FFF000000
FFF81FFF000000
FFF81FFF000000
FFF81FFF000000
FFF81FFF000000
FFF81FFF000000
FFF81FFF000000
FFF83FFF000000
FFFE7FFF000000
FFFFFFFE000000
FFFFFFFE000000
7FFFFFFE000000
7FFFFFFC000000
3FFFFFFC000000
3FFFFFF8000000
1FFFFFF8000000
0FFFFFF0000000
07FFFFE0000000
03FFFFC0000000
01FFFF00000000
007FFC00000000
00018000000000
ENDCHAR
STARTCHAR 003A
ENCODING 58
SWIDTH 692 0
DWIDTH 36 0
BBX 32 13 2 9
BITMAP
FFF81FFF
FFF81FFF
FFF81FFF
FFF81FFF
FFF81FFF
FFF81FFF
FFF81FFF
FFF81FFF
FFF81FFF
FFF81FFF
FFF81FFF
FFF81FFF
FFF81FFF
ENDCHAR
STARTCHAR 003B
ENCODING 59
SWIDTH 788 0
DWIDTH 41 0
BBX 37 18 2 4
BITMAP
FFF81F0000
FFF81FF000
FFF81FFC00
FFF81FFE00
FFF81FFF00
FFF81FFF80
FFF81FFFC0
FFF81FFFC0
FFF81FFFE0
FFF81FFFE0
FFF81FFFF0
FFF81FFFF0
FFF81FFFF0
000003FFF8
000001FFF8
000000FFF8
000000FFF8
000000FFF8
ENDCHAR
STARTCHAR 003C
ENCODING 60
SWIDTH 711 0
DWIDTH 37 0
BBX 33 33 2 0
BITMAP
FFF80FFF80
FFF80FFF80
FFF81FFF80
7FFC1FFF00
7FFC1FFF00
7FFC3FFF00
3FFE3FFE00
3FFE3FFE00
3FFE7FFE00
1FFF7FFC00
1FFF7FFC00
1FFFFFFC00
0FFFFFF800
0FFFFFF800
0FFFFFF800
07FFFFF000
07FFFFF000
07FFFFF000
03FFFFE000
03FFFFE000
03FFFFE000
01FFFFC000
01FFFFC000
01FFFFC000
00FFFF8000
00FFFF8000
00FFFF8000
007FFF0000
007FFF0000
007FFF0000
003FFE0000
003FFE0000
003FFE0000
ENDCHAR
STARTCHAR 003D
ENCODING 61
SWIDTH 692 0
DWIDTH 36 0
BBX 32 33 2 0
BITMAP
FFF81FFF
FFF81FFF
FFF81FFF
FFF81FFF
FFF81FFF
FFF81FFF
FFF81FFF
FFF81FFF
FFF81FFF
FFF81FFF
FFF81FFF
FFF81FFF
FFF81FFF
FFF81FFF
FFF81FFF
FFF81FFF
FFF81FFF
FFF81FFF
FFF81FFF
FFF81FFF
FFF81FFF
FFF81FFF
FFF81FFF
FFF81FFF
FFF81FFF
FFF81FFF
FFF81FFF
FFF81FFF
FFF81FFF
FFF81FFF
FFF81FFF
FFF81FFF
FFF81FFF
ENDCHAR
STARTCHAR 003E
ENCODING 62
SWIDTH 711 0
DWIDTH 37 0
BBX 33 33 2 0
BITMAP
003FFC0000
003FFE0000
003FFE0000
007FFE0000
007FFF0000
007FFF0000
00FFFF0000
00FFFF8000
00FFFF8000
01FFFF8000
01FFFFC000
01FFFFC000
03FFFFC000
03FFFFE000
03FFFFE000
07FFFFF000
07FFFFF000
07FFFFF000
0FFFFFF800
0FFFFFF800
0FFFFFF800
1FFFFFFC00
1FFF7FFC00
1FFF7FFC00
3FFF7FFE00
3FFE3FFE00
3FFE3FFE00
7FFE3FFF00
7FFC1FFF00
7FFC1FFF00
FFFC1FFF80
FFF80FFF80
FFF80FFF80
ENDCHAR
STARTCHAR 003F
ENCODING 63
SWIDTH 1057 0
DWIDTH 55 0
BBX 52 52 2 -9
BITMAP
003FF800000000
00FFFF00000000
03FFFF80000000
07FFFFE0000000
0FFFFFF0000000
1FFFFFF8000000
3FFFFFF8000000
3FFFFFFC000000
7FFFFFFC000000
7FFFFFFE000000
7FFFFFFE000000
FFFFFFFE000000
FFFFFFFF000000
FFFC3FFF000000
FFF81FFF000000
FFF81FFF000000
FFF81FFF000000
FFF81FFF000000
FFF81FFF000000
FFF81FFF01FFF0
FFF81FFF01FFF0
FFF81FFF01FFF0
FFF81FFF01FFF0
FFF81FFF01FFF0
FFF81FFF01FFF0
FFF81FFF01FFF0
FFF81FFF01FFF0
FFF81FFF01FFF0
FFF81FFF01FFF0
FFF81FFF01FFF0
FFF81FFF01FFF0
FFF81FFF01FFF0
FFF80000000000
FFF80000000000
FFF80000000000
FFF80000000000
FFF80000000000
FFF80000000000
FFF80000000000
FFF80000000000
FFF80000000000
FFF80000000000
FFF80000000000
FFF80000000000
FFF80000000000
FFF80000000000
FFF80000000000
FFF80000000000
FFF80000000000
FFF80000000000
FFF80000000000
FFF80000000000
ENDCHAR
STARTCHAR 0040
ENCODING 64
SWIDTH 1057 0
DWIDTH 55 0
BBX 52 52 2 -9
BITMAP
001FFFFFFF8000
00FFFFFFFFE000
03FFFFFFFFF800
07FFFFFFFFFC00
0FFFFFFFFFFE00
1FFFFFFFFFFF00
3FFFFFFFFFFF80
3FFFFFFFFFFF80
7FFFFFFFFFFFC0
7FFFFFFFFFFFC0
FFFFFFFFFFFFE0
FFFFFFFFFFFFE0
FFFFFFFFFFFFE0
FFFC1FFF03FFE0
FFF81FFF03FFE0
FFF81FFF01FFF0
FFF81FFF01FFE0
FFF81FFF03FFE0
FFF81FFF83FFE0
FFF80FFFFFFFE0
FFF80FFFFFFFE0
FFF80FFFFFFFE0
FFF80FFFFFFFC0
FFF807FFFFFFC0
FFF807FFFFFF80
FFF803FFFFFF80
FFF801FFFFFF00
FFF801FFFFFE00
FFF800FFFFFC00
FFF8003FFFF800
FFF8001FFFE000
FFF80003FF8000
FFF80000000000
FFF80000000000
FFF80000000000
FFF80000000000
FFF80000000000
FFF80000000000
FFFE0000000000
FFFFFFFFFFFFF0
FFFFFFFFFFFFF0
7FFFFFFFFFFFF0
7FFFFFFFFFFFF0
3FFFFFFFFFFFF0
3FFFFFFFFFFFF0
1FFFFFFFFFFFF0
0FFFFFFFFFFFF0
07FFFFFFFFFFF0
03FFFFFFFFFFF0
01FFFFFFFFFFF0
007FFFFFFFFFF0
0001FFFFFFFFF0
ENDCHAR
STARTCHAR 0041
ENCODING 65
SWIDTH 1057 0
DWIDTH 55 0
BBX 52 52 2 -9
BITMAP
00000FFFFFFFF0
0000FFFFFFFFF0
0003FFFFFFFFF0
000FFFFFFFFFF0
003FFFFFFFFFF0
007FFFFFFFFFF0
01FFFFFFFFFFF0
03FFFFFFFFFFF0
07FFFFFFFFFFF0
07FFFFFFFFFFF0
0FFFFFFFFFFFF0
1FFFFFFFFFFFF0
1FFFFFFFFFFFF0
3FFFF807FFC000
3FFFE007FFC000
7FFF8007FFC000
7FFF0007FFC000
7FFE0007FFC000
FFFC0007FFC000
FFFC0007FFC000
FFF80007FFC000
FFF80007FFC000
FFF80007FFC000
FFF80007FFC000
FFF80007FFC000
FFF80007FFC000
FFF80007FFC000
FFF80007FFC000
FFF80007FFC000
FFF80007FFC000
FFF80007FFC000
FFFC0007FFC000
FFFC0007FFC000
FFFE0007FFC000
7FFE0007FFC000
7FFF8007FFC000
7FFFC007FFC000
3FFFF007FFC000
3FFFFE07FFC000
1FFFFFFFFFFFF0
0FFFFFFFFFFFF0
0FFFFFFFFFFFF0
07FFFFFFFFFFF0
03FFFFFFFFFFF0
01FFFFFFFFFFF0
00FFFFFFFFFFF0
007FFFFFFFFFF0
001FFFFFFFFFF0
0007FFFFFFFFF0
0001FFFFFFFFF0
00003FFFFFFFF0
0000007FFFFFF0
ENDCHAR
STARTCHAR 0042
ENCODING 66
SWIDTH 1057 0
DWIDTH 55 0
BBX 52 52 2 -9
BITMAP
003FF803FF8000
00FFFF1FFFE000
03FFFFBFFFF800
07FFFFFFFFFC00
0FFFFFFFFFFE00
1FFFFFFFFFFF00
3FFFFFFFFFFF80
3FFFFFFFFFFF80
7FFFFFFFFFFFC0
7FFFFFFFFFFFC0
7FFFFFFFFFFFE0
FFFFFFFFFFFFE0
FFFFFFFFFFFFE0
FFFC3FFF83FFE0
FFF81FFF03FFE0
FFF81FFF01FFF0
FFF81FFF01FFF0
FFF81FFF01FFF0
FFF81FFF01FFF0
FFF81FFF01FFF0
FFF81FFF01FFF0
FFF81FFF01FFF0
FFF81FFF01FFF0
FFF81FFF01FFF0
FFF81FFF01FFF0
FFF81FFF01FFF0
FFF81FFF01FFF0
FFF81FFF01FFF0
FFF81FFF01FFF0
FFF81FFF01FFF0
FFF81FFF01FFF0
FFF81FFF01FFF0
FFF81FFF01FFF0
FFF81FFF01FFF0
FFF81FFF01FFF0
FFF81FFF01FFF0
FFF81FFF01FFF0
FFF81FFF01FFF0
FFF81FFF01FFF0
FFFFFFFFFFFFF0
FFFFFFFFFFFFF0
FFFFFFFFFFFFF0
FFFFFFFFFFFFF0
FFFFFFFFFFFFF0
FFFFFFFFFFFFF0
FFFFFFFFFFFFF0
FFFFFFFFFFFFF0
FFFFFFFFFFFFF0
FFFFFFFFFFFFF0
FFFFFFFFFFFFF0
FFFFFFFFFFFFF0
FFFFFFFFFFFFF0
ENDCHAR
STARTCHAR 0043
ENCODING 67
SWIDTH 1057 0
DWIDTH 55 0
BBX 52 52 2 -9
BITMAP
00001C07000000
0000FC07E00000
0003FC07F80000
000FFC07FE0000
003FFC07FF8000
007FFC07FFC000
00FFFC07FFE000
01FFFC07FFF000
03FFFC07FFF800
07FFFC07FFFC00
07FFFC07FFFE00
0FFFFC07FFFE00
1FFFFC07FFFF00
1FFFF803FFFF80
3FFFE000FFFF80
3FFFC0003FFF80
7FFF00001FFFC0
7FFF00000FFFC0
7FFE00000FFFE0
FFFC000007FFE0
FFFC000007FFE0
FFF8000003FFE0
FFF8000003FFE0
FFF8000003FFE0
FFF8000003FFF0
FFF8000001FFF0
FFF8000001FFF0
FFF8000003FFF0
FFF8000003FFE0
FFF8000003FFE0
FFF8000003FFE0
FFFC000007FFE0
FFFC000007FFE0
7FFE00000FFFC0
7FFF00001FFFC0
7FFF80003FFFC0
3FFFC0007FFF80
3FFFF001FFFF80
1FFFFE0FFFFF00
0FFFFFFFFFFF00
0FFFFFFFFFFE00
07FFFFFFFFFC00
03FFFFFFFFF800
01FFFFFFFFF000
00FFFFFFFFE000
007FFFFFFFC000
003FFFFFFF8000
001FFFFFFF0000
0007FFFFFC0000
0001FFFFF00000
00003FFF800000
00000040000000
ENDCHAR
STARTCHAR 0044
ENCODING 68
SWIDTH 1057 0
DWIDTH 55 0
BBX 52 52 2 -9
BITMAP
00003FFF800000
0001FFFFF00000
0007FFFFFC0000
001FFFFFFF0000
003FFFFFFF8000
00FFFFFFFFE000
01FFFFFFFFF000
03FFFFFFFFF800
07FFFFFFFFFC00
07FFFFFFFFFC00
0FFFFFFFFFFE00
1FFFFFFFFFFF00
1FFFFFFFFFFF00
3FFFF803FFFF80
3FFFC0007FFF80
3FFF80003FFF80
7FFF00001FFFC0
7FFE00000FFFC0
7FFE000007FFC0
FFFC000007FFE0
FFFC000003FFE0
FFF8000003FFE0
FFF8000003FFE0
FFF8000003FFE0
FFF8000001FFE0
FFF8000001FFF0
FFF8000001FFF0
FFF8000001FFF0
FFF8000001FFF0
FFF8000001FFF0
FFF8000001FFF0
FFF8000001FFF0
FFF8000001FFF0
FFF8000001FFF0
FFF8000001FFF0
FFF8000001FFF0
FFF8000001FFF0
FFF8000001FFF0
FFF8000001FFF0
FFFFFFFFFFFFF0
FFFFFFFFFFFFF0
FFFFFFFFFFFFF0
FFFFFFFFFFFFF0
FFFFFFFFFFFFF0
FFFFFFFFFFFFF0
FFFFFFFFFFFFF0
FFFFFFFFFFFFF0
FFFFFFFFFFFFF0
FFFFFFFFFFFFF0
FFFFFFFFFFFFF0
FFFFFFFFFFFFF0
FFFFFFFFFFFFF0
ENDCHAR
STARTCHAR 0045
ENCODING 69
SWIDTH 1057 0
DWIDTH 55 0
BBX 52 52 2 -9
BITMAP
FFF8000001FFF0
FFF8000001FFF0
FFF8000001FFF0
FFF8000001FFF0
FFF8000001FFF0
FFF8000001FFF0
FFF8000001FFF0
FFF8000001FFF0
FFF8000001FFF0
FFF8000001FFF0
FFF8000001FFF0
FFF8000001FFF0
FFF8000001FFF0
FFF8000001FFF0
FFF8000001FFF0
FFF8000001FFF0
FFF8000001FFF0
FFF8000001FFF0
FFF8000001FFF0
FFF8000001FFF0
FFF8000001FFF0
FFF8000001FFF0
FFF8000001FFF0
FFF8000001FFF0
FFF81FFF01FFF0
FFF81FFF01FFF0
FFF81FFF01FFF0
FFF81FFF01FFF0
FFF81FFF01FFF0
FFF81FFF01FFF0
FFF81FFF01FFF0
FFF81FFF01FFF0
FFF81FFF01FFF0
FFF81FFF01FFF0
FFF81FFF01FFF0
FFF81FFF01FFF0
FFF81FFF01FFF0
FFF81FFF01FFF0
FFF81FFF01FFF0
FFFFFFFFFFFFF0
FFFFFFFFFFFFF0
FFFFFFFFFFFFF0
FFFFFFFFFFFFF0
FFFFFFFFFFFFF0
FFFFFFFFFFFFF0
FFFFFFFFFFFFF0
FFFFFFFFFFFFF0
FFFFFFFFFFFFF0
FFFFFFFFFFFFF0
FFFFFFFFFFFFF0
FFFFFFFFFFFFF0
FFFFFFFFFFFFF0
ENDCHAR
STARTCHAR 0046
ENCODING 70
SWIDTH 1057 0
DWIDTH 55 0
BBX 52 52 2 -9
BITMAP
FFF80000000000
FFF80000000000
FFF80000000000
FFF80000000000
FFF80000000000
FFF80000000000
FFF80000000000
FFF80000000000
FFF80000000000
FFF80000000000
FFF80000000000
FFF80000000000
FFF80000000000
FFF80000000000
FFF80000000000
FFF80000000000
FFF80000000000
FFF80000000000
FFF80000000000
FFF80000000000
FFF80000000000
FFF80000000000
FFF80000000000
FFF80000000000
FFF81FFF000000
FFF81FFF000000
FFF81FFF000000
FFF81FFF000000
FFF81FFF000000
FFF81FFF000000
FFF81FFF000000
FFF81FFF000000
FFF81FFF000000
FFF81FFF000000
FFF81FFF000000
FFF81FFF000000
FFF81FFF000000
FFF81FFF000000
FFF81FFF000000
FFFFFFFFFFFFF0
FFFFFFFFFFFFF0
FFFFFFFFFFFFF0
FFFFFFFFFFFFF0
FFFFFFFFFFFFF0
FFFFFFFFFFFFF0
FFFFFFFFFFFFF0
FFFFFFFFFFFFF0
FFFFFFFFFFFFF0
FFFFFFFFFFFFF0
FFFFFFFFFFFFF0
FFFFFFFFFFFFF0
FFFFFFFFFFFFF0
ENDCHAR
STARTCHAR 0047
ENCODING 71
SWIDTH 1057 0
DWIDTH 55 0
BBX 52 52 2 -9
BITMAP
FFF81FFFFFFFF0
FFF81FFFFFFFF0
FFF81FFFFFFFF0
FFF81FFFFFFFF0
FFF81FFFFFFFF0
FFF81FFFFFFFF0
FFF81FFFFFFFF0
FFF81FFFFFFFF0
FFF81FFFFFFFF0
FFF81FFFFFFFF0
FFF81FFFFFFFF0
FFF81FFFFFFFF0
FFF81FFFFFFFF0
FFF81FFF01FFF0
FFF81FFF01FFF0
FFF81FFF01FFF0
FFF81FFF01FFF0
FFF81FFF01FFF0
FFF81FFF01FFF0
FFF81FFF01FFF0
FFF81FFF01FFF0
FFF81FFF01FFF0
FFF81FFF01FFF0
FFF81FFF01FFF0
FFF81FFF01FFF0
FFF81FFF01FFF0
FFF81FFF01FFF0
FFF8000003FFF0
FFF8000003FFE0
FFF8000003FFE0
FFF8000003FFE0
FFFC000007FFE0
7FFC000007FFE0
7FFE00000FFFC0
7FFF00000FFFC0
7FFF80001FFFC0
3FFFC0007FFF80
3FFFE000FFFF80
1FFFFE0FFFFF00
1FFFFFFFFFFF00
0FFFFFFFFFFE00
0FFFFFFFFFFE00
07FFFFFFFFFC00
03FFFFFFFFF800
01FFFFFFFFF000
00FFFFFFFFE000
007FFFFFFFC000
001FFFFFFF8000
000FFFFFFE0000
0003FFFFF80000
00007FFFC00000
00000040000000
ENDCHAR
STARTCHAR 0048
ENCODING 72
SWIDTH 1057 0
DWIDTH 55 0
BBX 52 52 2 -9
BITMAP
FFFFFFFFFFFFF0
FFFFFFFFFFFFF0
FFFFFFFFFFFFF0
FFFFFFFFFFFFF0
FFFFFFFFFFFFF0
FFFFFFFFFFFFF0
FFFFFFFFFFFFF0
FFFFFFFFFFFFF0
FFFFFFFFFFFFF0
FFFFFFFFFFFFF0
FFFFFFFFFFFFF0
FFFFFFFFFFFFF0
FFFFFFFFFFFFF0
00001FFF000000
00001FFF000000
00001FFF000000
00001FFF000000
00001FFF000000
00001FFF000000
00001FFF000000
00001FFF000000
00001FFF000000
00001FFF000000
00001FFF000000
00001FFF000000
00001FFF000000
00001FFF000000
00001FFF000000
00001FFF000000
00001FFF000000
00001FFF000000
00001FFF000000
00001FFF000000
00001FFF000000
00001FFF000000
00001FFF000000
00001FFF000000
00001FFF000000
00001FFF000000
FFFFFFFFFFFFF0
FFFFFFFFFFFFF0
FFFFFFFFFFFFF0
FFFFFFFFFFFFF0
FFFFFFFFFFFFF0
FFFFFFFFFFFFF0
FFFFFFFFFFFFF0
FFFFFFFFFFFFF0
FFFFFFFFFFFFF0
FFFFFFFFFFFFF0
FFFFFFFFFFFFF0
FFFFFFFFFFFFF0
FFFFFFFFFFFFF0
ENDCHAR
STARTCHAR 0049
ENCODING 73
SWIDTH 1057 0
DWIDTH 55 0
BBX 52 52 2 -9
BITMAP
FFF8000001FFF0
FFF8000001FFF0
FFF8000001FFF0
FFF8000001FFF0
FFF8000001FFF0
FFF8000001FFF0
FFF8000001FFF0
FFF8000001FFF0
FFF8000001FFF0
FFF8000001FFF0
FFF8000001FFF0
FFF8000001FFF0
FFF8000001FFF0
FFF8000001FFF0
FFF8000001FFF0
FFF8000001FFF0
FFF8000001FFF0
FFF8000001FFF0
FFF8000001FFF0
FFFFFFFFFFFFF0
FFFFFFFFFFFFF0
FFFFFFFFFFFFF0
FFFFFFFFFFFFF0
FFFFFFFFFFFFF0
FFFFFFFFFFFFF0
FFFFFFFFFFFFF0
FFFFFFFFFFFFF0
FFFFFFFFFFFFF0
FFFFFFFFFFFFF0
FFFFFFFFFFFFF0
FFFFFFFFFFFFF0
FFFFFFFFFFFFF0
FFF8000001FFF0
FFF8000001FFF0
FFF8000001FFF0
FFF8000001FFF0
FFF8000001FFF0
FFF8000001FFF0
FFF8000001FFF0
FFF8000001FFF0
FFF8000001FFF0
FFF8000001FFF0
FFF8000001FFF0
FFF8000001FFF0
FFF8000001FFF0
FFF8000001FFF0
FFF8000001FFF0
FFF8000001FFF0
FFF8000001FFF0
FFF8000001FFF0
FFF8000001FFF0
FFF8000001FFF0
ENDCHAR
STARTCHAR 004A
ENCODING 74
SWIDTH 1057 0
DWIDTH 55 0
BBX 52 52 2 -9
BITMAP
FFFFFFFF000000
FFFFFFFFE00000
FFFFFFFFFC0000
FFFFFFFFFF0000
FFFFFFFFFF8000
FFFFFFFFFFE000
FFFFFFFFFFF000
FFFFFFFFFFF800
FFFFFFFFFFFC00
FFFFFFFFFFFE00
FFFFFFFFFFFE00
FFFFFFFFFFFF00
FFFFFFFFFFFF00
FFF80003FFFF80
FFF80000FFFF80
FFF800003FFFC0
FFF800001FFFC0
FFF800000FFFE0
FFF8000007FFE0
FFF8000007FFE0
FFF8000003FFE0
FFF8000003FFE0
FFF8000003FFE0
FFF8000003FFE0
FFF8000001FFF0
FFF8000001FFF0
FFF8000001FFF0
0000000003FFF0
0000000003FFE0
0000000003FFE0
0000000003FFE0
0000000007FFE0
0000000007FFE0
000000000FFFE0
000000000FFFC0
000000001FFFC0
000000007FFFC0
00000001FFFF80
0000000FFFFF80
000000FFFFFF00
000000FFFFFF00
000000FFFFFE00
000000FFFFFC00
000000FFFFF800
000000FFFFF000
000000FFFFE000
000000FFFFC000
000000FFFF0000
000000FFFC0000
000000FFF00000
000000FF800000
000000C0000000
ENDCHAR
STARTCHAR 004B
ENCODING 75
SWIDTH 1057 0
DWIDTH 55 0
BBX 52 52 2 -9
BITMAP
FFF8000003FFF0
FFFF80001FFFF0
FFFFE000FFFFF0
FFFFF801FFFFF0
FFFFFC07FFFFF0
FFFFFE0FFFFFF0
FFFFFF1FFFFFF0
FFFFFFBFFFFFF0
FFFFFFFFFFFFF0
FFFFFFFFFFFFF0
FFFFFFFFFFFFF0
FFFFFFFFFFFFF0
FFFFFFFFFFFFF0
001FFFFFFF0000
0007FFFFFC0000
0003FFFFF80000
0000FFFFF00000
00007FFFE00000
00007FFFC00000
00003FFF800000
00003FFF800000
00001FFF800000
00001FFF000000
00001FFF000000
00001FFF000000
00001FFF000000
00001FFF000000
00001FFF000000
00001FFF000000
00001FFF000000
00001FFF000000
00001FFF000000
00001FFF000000
00001FFF000000
00001FFF000000
00001FFF000000
00001FFF000000
00001FFF000000
00001FFF000000
FFFFFFFFFFFFF0
FFFFFFFFFFFFF0
FFFFFFFFFFFFF0
FFFFFFFFFFFFF0
FFFFFFFFFFFFF0
FFFFFFFFFFFFF0
FFFFFFFFFFFFF0
FFFFFFFFFFFFF0
FFFFFFFFFFFFF0
FFFFFFFFFFFFF0
FFFFFFFFFFFFF0
FFFFFFFFFFFFF0
FFFFFFFFFFFFF0
ENDCHAR
STARTCHAR 004C
ENCODING 76
SWIDTH 1057 0
DWIDTH 55 0
BBX 52 52 2 -9
BITMAP
0000000001FFF0
0000000001FFF0
0000000001FFF0
0000000001FFF0
0000000001FFF0
0000000001FFF0
0000000001FFF0
0000000001FFF0
0000000001FFF0
0000000001FFF0
0000000001FFF0
0000000001FFF0
0000000001FFF0
0000000001FFF0
0000000001FFF0
0000000001FFF0
0000000001FFF0
0000000001FFF0
0000000001FFF0
0000000001FFF0
0000000001FFF0
0000000001FFF0
0000000001FFF0
0000000001FFF0
0000000001FFF0
0000000001FFF0
0000000001FFF0
0000000001FFF0
0000000001FFF0
0000000001FFF0
0000000001FFF0
0000000001FFF0
0000000001FFF0
0000000001FFF0
0000000001FFF0
0000000001FFF0
0000000001FFF0
0000000001FFF0
0000000001FFF0
FFFFFFFFFFFFF0
FFFFFFFFFFFFF0
FFFFFFFFFFFFF0
FFFFFFFFFFFFF0
FFFFFFFFFFFFF0
FFFFFFFFFFFFF0
FFFFFFFFFFFFF0
FFFFFFFFFFFFF0
FFFFFFFFFFFFF0
FFFFFFFFFFFFF0
FFFFFFFFFFFFF0
FFFFFFFFFFFFF0
FFFFFFFFFFFFF0
ENDCHAR
STARTCHAR 004D
ENCODING 77
SWIDTH 1057 0
DWIDTH 55 0
BBX 52 52 2 -9
BITMAP
FFFFFFFFFFFFF0
FFFFFFFFFFFFF0
FFFFFFFFFFFFF0
FFFFFFFFFFFFF0
FFFFFFFFFFFFF0
FFFFFFFFFFFFF0
FFFFFFFFFFFFF0
FFFFFFFFFFFFF0
FFFFFFFFFFFFF0
FFFFFFFFFFFFF0
FFFFFFFFFFFFF0
FFFFFFFFFFFFF0
FFFFFFFFFFFFF0
7FFFF000000000
3FFFF800000000
1FFFFC00000000
0FFFFE00000000
07FFFF00000000
03FFFF80000000
01FFFFC0000000
00FFFFE0000000
007FFFF0000000
003FFFF8000000
001FFFFC000000
000FFFFE000000
0007FFFF000000
0007FFFE000000
000FFFFC000000
001FFFF8000000
003FFFF0000000
007FFFE0000000
00FFFFC0000000
01FFFF80000000
03FFFF00000000
07FFFE00000000
0FFFFC00000000
1FFFF800000000
3FFFF000000000
7FFFE000000000
FFFFFFFFFFFFF0
FFFFFFFFFFFFF0
FFFFFFFFFFFFF0
FFFFFFFFFFFFF0
FFFFFFFFFFFFF0
FFFFFFFFFFFFF0
FFFFFFFFFFFFF0
FFFFFFFFFFFFF0
FFFFFFFFFFFFF0
FFFFFFFFFFFFF0
FFFFFFFFFFFFF0
FFFFFFFFFFFFF0
FFFFFFFFFFFFF0
ENDCHAR
STARTCHAR 004E
ENCODING 78
SWIDTH 1057 0
DWIDTH 55 0
BBX 52 52 2 -9
BITMAP
FFFFFFFFFFFFF0
FFFFFFFFFFFFF0
FFFFFFFFFFFFF0
FFFFFFFFFFFFF0
FFFFFFFFFFFFF0
FFFFFFFFFFFFF0
FFFFFFFFFFFFF0
FFFFFFFFFFFFF0
FFFFFFFFFFFFF0
FFFFFFFFFFFFF0
FFFFFFFFFFFFF0
FFFFFFFFFFFFF0
FFFFFFFFFFFFE0
00000007FFFFC0
0000000FFFFF80
0000001FFFFE00
0000003FFFFC00
0000007FFFF800
000000FFFFF000
000003FFFFE000
000007FFFFC000
00000FFFFF8000
00001FFFFE0000
00003FFFFC0000
00007FFFF80000
0000FFFFF00000
0003FFFFE00000
0007FFFFC00000
000FFFFF800000
001FFFFE000000
003FFFFC000000
007FFFF8000000
00FFFFF0000000
03FFFFE0000000
07FFFFC0000000
0FFFFF80000000
1FFFFE00000000
3FFFFC00000000
7FFFF800000000
FFFFFFFFFFFFF0
FFFFFFFFFFFFF0
FFFFFFFFFFFFF0
FFFFFFFFFFFFF0
FFFFFFFFFFFFF0
FFFFFFFFFFFFF0
FFFFFFFFFFFFF0
FFFFFFFFFFFFF0
FFFFFFFFFFFFF0
FFFFFFFFFFFFF0
FFFFFFFFFFFFF0
FFFFFFFFFFFFF0
FFFFFFFFFFFFF0
ENDCHAR
STARTCHAR 004F
ENCODING 79
SWIDTH 1057 0
DWIDTH 55 0
BBX 52 52 2 -9
BITMAP
00001FFF000000
0000FFFFE00000
0003FFFFF80000
000FFFFFFE0000
003FFFFFFF8000
007FFFFFFFC000
00FFFFFFFFE000
01FFFFFFFFF000
03FFFFFFFFF800
07FFFFFFFFFC00
0FFFFFFFFFFE00
0FFFFFFFFFFE00
1FFFFFFFFFFF00
1FFFF803FFFF80
3FFFE000FFFF80
3FFFC0003FFFC0
7FFF00001FFFC0
7FFE00000FFFC0
FFFE00000FFFE0
FFFC000007FFE0
FFFC000007FFE0
FFF8000003FFE0
FFF8000003FFE0
FFF8000003FFE0
FFF8000001FFF0
FFF8000001FFF0
FFF8000001FFF0
FFF8000003FFF0
FFF8000003FFE0
FFF8000003FFE0
FFF8000003FFE0
FFFC000007FFE0
FFFC000007FFE0
7FFE00000FFFC0
7FFF00001FFFC0
7FFF80003FFFC0
3FFFC0007FFF80
3FFFF001FFFF80
1FFFFE0FFFFF00
0FFFFFFFFFFF00
0FFFFFFFFFFE00
07FFFFFFFFFC00
03FFFFFFFFF800
01FFFFFFFFF000
00FFFFFFFFE000
007FFFFFFFC000
003FFFFFFF8000
001FFFFFFF0000
0007FFFFFC0000
0001FFFFF00000
00003FFF800000
00000040000000
ENDCHAR
STARTCHAR 0050
ENCODING 80
SWIDTH 1057 0
DWIDTH 55 0
BBX 52 52 2 -9
BITMAP
003FF800000000
00FFFF00000000
03FFFF80000000
07FFFFE0000000
0FFFFFF0000000
1FFFFFF8000000
3FFFFFF8000000
3FFFFFFC000000
7FFFFFFC000000
7FFFFFFE000000
7FFFFFFE000000
FFFFFFFE000000
FFFFFFFF000000
FFFC3FFF000000
FFF81FFF000000
FFF81FFF000000
FFF81FFF000000
FFF81FFF000000
FFF81FFF000000
FFF81FFF000000
FFF81FFF000000
FFF81FFF000000
FFF81FFF000000
FFF81FFF000000
FFF81FFF000000
FFF81FFF000000
FFF81FFF000000
FFF81FFF000000
FFF81FFF000000
FFF81FFF000000
FFF81FFF000000
FFF81FFF000000
FFF81FFF000000
FFF81FFF000000
FFF81FFF000000
FFF81FFF000000
FFF81FFF000000
FFF81FFF000000
FFF81FFF000000
FFFFFFFFFFFFF0
FFFFFFFFFFFFF0
FFFFFFFFFFFFF0
FFFFFFFFFFFFF0
FFFFFFFFFFFFF0
FFFFFFFFFFFFF0
FFFFFFFFFFFFF0
FFFFFFFFFFFFF0
FFFFFFFFFFFFF0
FFFFFFFFFFFFF0
FFFFFFFFFFFFF0
FFFFFFFFFFFFF0
FFFFFFFFFFFFF0
ENDCHAR
STARTCHAR 0051
ENCODING 81
SWIDTH 1057 0
DWIDTH 55 0
BBX 52 52 2 -9
BITMAP
00001FFF000000
0000FFFFE00000
0003FFFFF80000
000FFFFFFE0000
003FFFFFFF8000
007FFFFFFFC000
00FFFFFFFFE000
01FFFFFFFFF000
03FFFFFFFFF800
07FFFFFFFFFC00
0FFFFFFFFFFE00
0FFFFFFFFFFE00
1FFFFFFFFFFF00
1FFFF803FFFF80
3FFFE000FFFF80
3FFFC0003FFFC0
7FFF00001FFFC0
7FFE00000FFFC0
FFFE00000FFFE0
FFFC00FFFFFFE0
FFFC00FFFFFFE0
FFF800FFFFFFE0
FFF800FFFFFFE0
FFF800FFFFFFE0
FFF800FFFFFFF0
FFF800FFFFFFF0
FFF800FFFFFFF0
FFF800FFFFFFF0
FFF800FFFFFFE0
FFF800FFFFFFE0
FFF800FFFFFFE0
FFFC00FFFFFFE0
FFFC000007FFE0
7FFE00000FFFC0
7FFF00001FFFC0
7FFF80003FFFC0
3FFFC0007FFF80
3FFFF001FFFF80
1FFFFE1FFFFF00
0FFFFFFFFFFF00
0FFFFFFFFFFE00
07FFFFFFFFFC00
03FFFFFFFFF800
01FFFFFFFFF000
00FFFFFFFFE000
007FFFFFFFC000
003FFFFFFF8000
001FFFFFFF0000
0007FFFFFC0000
0001FFFFF00000
00003FFF800000
00000040000000
ENDCHAR
STARTCHAR 0052
ENCODING 82
SWIDTH 1057 0
DWIDTH 55 0
BBX 52 52 2 -9
BITMAP
003FF80001FFF0
00FFFF000FFFF0
03FFFF807FFFF0
07FFFFE1FFFFF0
0FFFFFF7FFFFF0
1FFFFFFFFFFFF0
3FFFFFFFFFFFF0
3FFFFFFFFFFFF0
7FFFFFFFFFFFF0
7FFFFFFFFFFFF0
7FFFFFFFFFFFF0
FFFFFFFFFFFFF0
FFFFFFFFFFFFF0
FFFC3FFFFF0000
FFF81FFFFC0000
FFF81FFFF80000
FFF81FFFF00000
FFF81FFFE00000
FFF81FFFC00000
FFF81FFF800000
FFF81FFF800000
FFF81FFF800000
FFF81FFF000000
FFF81FFF000000
FFF81FFF000000
FFF81FFF000000
FFF81FFF000000
FFF81FFF000000
FFF81FFF000000
FFF81FFF000000
FFF81FFF000000
FFF81FFF000000
FFF81FFF000000
FFF81FFF000000
FFF81FFF000000
FFF81FFF000000
FFF81FFF000000
FFF81FFF000000
FFF81FFF000000
FFFFFFFFFFFFF0
FFFFFFFFFFFFF0
FFFFFFFFFFFFF0
FFFFFFFFFFFFF0
FFFFFFFFFFFFF0
FFFFFFFFFFFFF0
FFFFFFFFFFFFF0
FFFFFFFFFFFFF0
FFFFFFFFFFFFF0
FFFFFFFFFFFFF0
FFFFFFFFFFFFF0
FFFFFFFFFFFFF0
FFFFFFFFFFFFF0
ENDCHAR
STARTCHAR 0053
ENCODING 83
SWIDTH 1057 0
DWIDTH 55 0
BBX 52 52 2 -9
BITMAP
FFF80003FF8000
FFF8001FFFE000
FFF8003FFFF800
FFF800FFFFFC00
FFF801FFFFFE00
FFF801FFFFFF00
FFF803FFFFFF80
FFF807FFFFFF80
FFF807FFFFFFC0
FFF80FFFFFFFC0
FFF80FFFFFFFE0
FFF80FFFFFFFE0
FFF81FFFFFFFE0
FFF81FFF83FFE0
FFF81FFF03FFE0
FFF81FFF01FFF0
FFF81FFF01FFF0
FFF81FFF01FFF0
FFF81FFF01FFF0
FFF81FFF01FFF0
FFF81FFF01FFF0
FFF81FFF01FFF0
FFF81FFF01FFF0
FFF81FFF01FFF0
FFF81FFF01FFF0
FFF81FFF01FFF0
FFF81FFF01FFF0
FFF81FFF01FFF0
FFF81FFF01FFF0
FFF81FFF01FFF0
FFF81FFF01FFF0
FFF81FFF01FFF0
FFF81FFF01FFF0
FFF81FFF01FFF0
FFF81FFF01FFF0
FFF81FFF01FFF0
FFF81FFF01FFF0
FFF83FFF01FFF0
FFFE7FFF01FFF0
FFFFFFFE01FFF0
FFFFFFFE01FFF0
7FFFFFFE01FFF0
7FFFFFFC01FFF0
3FFFFFFC01FFF0
3FFFFFF801FFF0
1FFFFFF801FFF0
0FFFFFF001FFF0
07FFFFE001FFF0
03FFFFC001FFF0
01FFFF0001FFF0
007FFC0001FFF0
0001800001FFF0
ENDCHAR
STARTCHAR 0054
ENCODING 84
SWIDTH 1057 0
DWIDTH 55 0
BBX 52 52 2 -9
BITMAP
FFF80000000000
FFF80000000000
FFF80000000000
FFF80000000000
FFF80000000000
FFF80000000000
FFF80000000000
FFF80000000000
FFF80000000000
FFF80000000000
FFF80000000000
FFF80000000000
FFF80000000000
FFF80000000000
FFF80000000000
FFF80000000000
FFF80000000000
FFF80000000000
FFF80000000000
FFFFFFFFFFFFF0
FFFFFFFFFFFFF0
FFFFFFFFFFFFF0
FFFFFFFFFFFFF0
FFFFFFFFFFFFF0
FFFFFFFFFFFFF0
FFFFFFFFFFFFF0
FFFFFFFFFFFFF0
FFFFFFFFFFFFF0
FFFFFFFFFFFFF0
FFFFFFFFFFFFF0
FFFFFFFFFFFFF0
FFFFFFFFFFFFF0
FFF80000000000
FFF80000000000
FFF80000000000
FFF80000000000
FFF80000000000
FFF80000000000
FFF80000000000
FFF80000000000
FFF80000000000
FFF80000000000
FFF80000000000
FFF80000000000
FFF80000000000
FFF80000000000
FFF80000000000
FFF80000000000
FFF80000000000
FFF80000000000
FFF80000000000
FFF80000000000
ENDCHAR
STARTCHAR 0055
ENCODING 85
SWIDTH 1057 0
DWIDTH 55 0
BBX 52 52 2 -9
BITMAP
FFFFFFFF000000
FFFFFFFFE00000
FFFFFFFFFC0000
FFFFFFFFFF0000
FFFFFFFFFF8000
FFFFFFFFFFE000
FFFFFFFFFFF000
FFFFFFFFFFF800
FFFFFFFFFFFC00
FFFFFFFFFFFE00
FFFFFFFFFFFE00
FFFFFFFFFFFF00
FFFFFFFFFFFF00
00000003FFFF80
00000000FFFF80
000000003FFFC0
000000001FFFC0
000000000FFFE0
0000000007FFE0
0000000007FFE0
0000000003FFE0
0000000003FFE0
0000000003FFE0
0000000003FFE0
0000000001FFF0
0000000001FFF0
0000000001FFF0
0000000003FFF0
0000000003FFE0
0000000003FFE0
0000000003FFE0
0000000007FFE0
0000000007FFE0
000000000FFFE0
000000000FFFC0
000000001FFFC0
000000007FFFC0
00000001FFFF80
0000000FFFFF80
FFFFFFFFFFFF00
FFFFFFFFFFFF00
FFFFFFFFFFFE00
FFFFFFFFFFFC00
FFFFFFFFFFF800
FFFFFFFFFFF000
FFFFFFFFFFE000
FFFFFFFFFFC000
FFFFFFFFFF0000
FFFFFFFFFC0000
FFFFFFFFF00000
FFFFFFFF800000
FFFFFFC0000000
ENDCHAR
STARTCHAR 0056
ENCODING 86
SWIDTH 1057 0
DWIDTH 55 0
BBX 52 52 2 -9
BITMAP
FFFFE000000000
FFFFFE00000000
FFFFFFC0000000
FFFFFFF0000000
FFFFFFFC000000
FFFFFFFF000000
FFFFFFFF800000
FFFFFFFFE00000
FFFFFFFFF00000
FFFFFFFFF80000
FFFFFFFFFC0000
FFFFFFFFFE0000
FFFFFFFFFF0000
00003FFFFF8000
000007FFFFC000
000001FFFFE000
0000007FFFF000
0000001FFFF800
0000000FFFF800
00000007FFFC00
00000003FFFC00
00000001FFFE00
00000000FFFF00
000000007FFF00
000000003FFF00
000000001FFF80
000000001FFF80
000000000FFFC0
000000000FFFC0
0000000007FFC0
0000000007FFC0
0000000007FFE0
0000000003FFE0
0000000003FFE0
0000000003FFE0
0000000003FFE0
0000000003FFE0
0000000003FFE0
0000000001FFF0
FFFFFFFFFFFFF0
FFFFFFFFFFFFF0
FFFFFFFFFFFFF0
FFFFFFFFFFFFF0
FFFFFFFFFFFFF0
FFFFFFFFFFFFF0
FFFFFFFFFFFFF0
FFFFFFFFFFFFF0
FFFFFFFFFFFFF0
FFFFFFFFFFFFF0
FFFFFFFFFFFFF0
FFFFFFFFFFFFF0
FFFFFFFFFFFFF0
ENDCHAR
STARTCHAR 0057
ENCODING 87
SWIDTH 1057 0
DWIDTH 55 0
BBX 52 52 2 -9
BITMAP
FFFFFFFFFFFFF0
FFFFFFFFFFFFF0
FFFFFFFFFFFFF0
FFFFFFFFFFFFF0
FFFFFFFFFFFFF0
FFFFFFFFFFFFF0
FFFFFFFFFFFFF0
FFFFFFFFFFFFF0
FFFFFFFFFFFFF0
FFFFFFFFFFFFF0
FFFFFFFFFFFFF0
FFFFFFFFFFFFF0
FFFFFFFFFFFFE0
00000001FFFFC0
00000003FFFF80
00000007FFFF00
0000000FFFFE00
0000001FFFFC00
0000003FFFF800
0000007FFFF000
000000FFFFE000
000001FFFFC000
000003FFFF8000
000007FFFF0000
00000FFFFE0000
00001FFFFC0000
00000FFFFC0000
000007FFFE0000
000003FFFF0000
000001FFFF8000
000000FFFFC000
0000007FFFE000
0000003FFFF000
0000001FFFF800
0000000FFFFC00
00000007FFFE00
00000003FFFF00
00000001FFFF80
00000000FFFFC0
FFFFFFFFFFFFE0
FFFFFFFFFFFFF0
FFFFFFFFFFFFF0
FFFFFFFFFFFFF0
FFFFFFFFFFFFF0
FFFFFFFFFFFFF0
FFFFFFFFFFFFF0
FFFFFFFFFFFFF0
FFFFFFFFFFFFF0
FFFFFFFFFFFFF0
FFFFFFFFFFFFF0
FFFFFFFFFFFFF0
FFFFFFFFFFFFF0
ENDCHAR
STARTCHAR 0058
ENCODING 88
SWIDTH 1057 0
DWIDTH 55 0
BBX 52 52 2 -9
BITMAP
FFF0000001FFF0
FFFF00000FFFF0
FFFFC0007FFFF0
FFFFF001FFFFF0
FFFFFC07FFFFF0
FFFFFE0FFFFFF0
FFFFFF1FFFFFF0
FFFFFFBFFFFFF0
FFFFFFFFFFFFF0
FFFFFFFFFFFFF0
FFFFFFFFFFFFF0
FFFFFFFFFFFFF0
FFFFFFFFFFFFF0
001FFFFFFF0000
0007FFFFFC0000
0003FFFFF80000
0000FFFFF00000
00007FFFE00000
00007FFFC00000
00003FFF800000
00003FFF800000
00001FFF800000
00001FFF000000
00001FFF000000
00001FFF000000
00001FFF000000
00001FFF000000
00001FFF000000
00001FFF000000
00001FFF000000
00003FFF800000
00003FFF800000
00003FFFC00000
00007FFFC00000
0000FFFFE00000
0001FFFFF00000
0003FFFFF80000
000FFFFFFE0000
007FFFFFFFC000
FFFFFFFFFFFFF0
FFFFFFFFFFFFF0
FFFFFFFFFFFFF0
FFFFFFFFFFFFF0
FFFFFFFFFFFFF0
FFFFFFBFFFFFF0
FFFFFE0FFFFFF0
FFFFFC07FFFFF0
FFFFF803FFFFF0
FFFFE000FFFFF0
FFFF00001FFFF0
FFF8000003FFF0
FE000000000FF0
ENDCHAR
STARTCHAR 0059
ENCODING 89
SWIDTH 1057 0
DWIDTH 55 0
BBX 52 52 2 -9
BITMAP
FFF00000000000
FFFE0000000000
FFFFC000000000
FFFFF000000000
FFFFFC00000000
FFFFFE00000000
FFFFFF00000000
FFFFFF80000000
FFFFFFC0000000
FFFFFFE0000000
FFFFFFF0000000
FFFFFFF0000000
FFFFFFF8000000
001FFFF8000000
0007FFFC000000
0003FFFC000000
0000FFFE000000
00007FFE000000
00007FFE000000
00003FFFFFFFF0
00003FFFFFFFF0
00001FFFFFFFF0
00001FFFFFFFF0
00001FFFFFFFF0
00001FFFFFFFF0
00001FFFFFFFF0
00001FFFFFFFF0
00001FFFFFFFF0
00001FFFFFFFF0
00001FFFFFFFF0
00003FFFFFFFF0
00003FFFFFFFF0
00003FFE000000
00007FFE000000
0000FFFE000000
0001FFFC000000
0003FFFC000000
000FFFFC000000
007FFFF8000000
FFFFFFF8000000
FFFFFFF0000000
FFFFFFE0000000
FFFFFFC0000000
FFFFFFC0000000
FFFFFF80000000
FFFFFE00000000
FFFFFC00000000
FFFFF000000000
FFFFC000000000
FFFF0000000000
FFF80000000000
FE000000000000
ENDCHAR
STARTCHAR 005A
ENCODING 90
SWIDTH 1057 0
DWIDTH 55 0
BBX 52 52 2 -9
BITMAP
FFF0000001FFF0
FFF8000001FFF0
FFFC000001FFF0
FFFE000001FFF0
FFFF000001FFF0
FFFF800001FFF0
FFFFC00001FFF0
FFFFC00001FFF0
FFFFE00001FFF0
FFFFF00001FFF0
FFFFF80001FFF0
FFFFFC0001FFF0
FFFFFE0001FFF0
FFFFFF0001FFF0
FFFFFF8001FFF0
FFFFFFC001FFF0
FFFFFFC001FFF0
FFFFFFE001FFF0
FFFFFFF001FFF0
FFFFFFF801FFF0
FFFFFFFC01FFF0
FFFFFFFE01FFF0
FFFBFFFF01FFF0
FFF9FFFF81FFF0
FFF8FFFF81FFF0
FFF8FFFFC1FFF0
FFF87FFFE1FFF0
FFF83FFFF1FFF0
FFF81FFFF9FFF0
FFF80FFFFDFFF0
FFF807FFFFFFF0
FFF803FFFFFFF0
FFF801FFFFFFF0
FFF801FFFFFFF0
FFF800FFFFFFF0
FFF8007FFFFFF0
FFF8003FFFFFF0
FFF8001FFFFFF0
FFF8000FFFFFF0
FFF80007FFFFF0
FFF80003FFFFF0
FFF80001FFFFF0
FFF80001FFFFF0
FFF80000FFFFF0
FFF800007FFFF0
FFF800003FFFF0
FFF800001FFFF0
FFF800000FFFF0
FFF8000007FFF0
FFF8000003FFF0
FFF8000003FFF0
FFF8000001FFF0
ENDCHAR
STARTCHAR 005B
ENCODING 91
SWIDTH 1057 0
DWIDTH 55 0
BBX 52 23 2 4
BITMAP
FFF8000001FFF0
FFF8000001FFF0
FFF8000001FFF0
FFF8000001FFF0
FFF8000001FFF0
FFF8000001FFF0
FFF8000001FFF0
FFF8000001FFF0
FFF8000001FFF0
FFF8000001FFF0
FFFFFFFFFFFFF0
FFFFFFFFFFFFF0
FFFFFFFFFFFFF0
FFFFFFFFFFFFF0
FFFFFFFFFFFFF0
FFFFFFFFFFFFF0
FFFFFFFFFFFFF0
FFFFFFFFFFFFF0
FFFFFFFFFFFFF0
FFFFFFFFFFFFF0
FFFFFFFFFFFFF0
FFFFFFFFFFFFF0
FFFFFFFFFFFFF0
ENDCHAR
STARTCHAR 005C
ENCODING 92
SWIDTH 1057 0
DWIDTH 55 0
BBX 52 44 2 -6
BITMAP
00000000000010
00000000000030
000000000000F0
000000000003F0
000000000007F0
00000000001FF0
00000000007FF0
0000000001FFF0
0000000003FFF0
000000000FFFF0
000000003FFFF0
000000007FFFF0
00000001FFFFF0
00000007FFFFF0
0000001FFFFFF0
0000003FFFFFC0
000000FFFFFF80
000003FFFFFE00
000007FFFFF800
00001FFFFFE000
00007FFFFFC000
0001FFFFFF0000
0003FFFFFC0000
000FFFFFF00000
003FFFFFE00000
007FFFFF800000
01FFFFFE000000
07FFFFFC000000
1FFFFFF0000000
3FFFFFC0000000
FFFFFF00000000
FFFFFE00000000
FFFFF800000000
FFFFE000000000
FFFF8000000000
FFFF0000000000
FFFC0000000000
FFF00000000000
FFE00000000000
FF800000000000
FE000000000000
F8000000000000
F0000000000000
C0000000000000
ENDCHAR
STARTCHAR 005D
ENCODING 93
SWIDTH 1057 0
DWIDTH 55 0
BBX 52 23 2 4
BITMAP
FFFFFFFFFFFFF0
FFFFFFFFFFFFF0
FFFFFFFFFFFFF0
FFFFFFFFFFFFF0
FFFFFFFFFFFFF0
FFFFFFFFFFFFF0
FFFFFFFFFFFFF0
FFFFFFFFFFFFF0
FFFFFFFFFFFFF0
FFFFFFFFFFFFF0
FFFFFFFFFFFFF0
FFFFFFFFFFFFF0
FFFFFFFFFFFFF0
FFF8000001FFF0
FFF8000001FFF0
FFF8000001FFF0
FFF8000001FFF0
FFF8000001FFF0
FFF8000001FFF0
FFF8000001FFF0
FFF8000001FFF0
FFF8000001FFF0
FFF8000001FFF0
ENDCHAR
STARTCHAR 005E
ENCODING 94
SWIDTH 500 0
DWIDTH 26 0
BBX 22 33 2 0
BITMAP
00000C
00003C
0000FC
0003FC
000FFC
003FFC
00FFFC
03FFFC
0FFFFC
3FFFFC
FFFFFC
FFFFFC
FFFFFC
FFFFF8
FFFFE0
FFFF80
FFFE00
FFFF00
FFFFC0
FFFFF0
FFFFFC
FFFFFC
FFFFFC
7FFFFC
1FFFFC
07FFFC
01FFFC
007FFC
000FFC
0003FC
0000FC
00003C
00000C
ENDCHAR
STARTCHAR 005F
ENCODING 95
SWIDTH 307 0
DWIDTH 16 0
BBX 13 42 2 -4
BITMAP
FFF8
FFF8
FFF8
FFF8
FFF8
FFF8
FFF8
FFF8
FFF8
FFF8
FFF8
FFF8
FFF8
FFF8
FFF8
FFF8
FFF8
FFF8
FFF8
FFF8
FFF8
FFF8
FFF8
FFF8
FFF8
FFF8
FFF8
FFF8
FFF8
FFF8
FFF8
FFF8
FFF8
FFF8
FFF8
FFF8
FFF8
FFF8
FFF8
FFF8
FFF8
FFF8
ENDCHAR
STARTCHAR 0060
ENCODING 96
SWIDTH 403 0
DWIDTH 21 0
BBX 17 13 2 9
BITMAP
FFFF80
FFFF80
FFFF80
FFFF80
FFFF80
FFFF80
FFFF80
FFFF80
FFFF80
FFFF80
FFFF80
FFFF80
FFFF80
ENDCHAR
STARTCHAR 0061
ENCODING 97
SWIDTH 1057 0
DWIDTH 55 0
BBX 52 52 2 -9
BITMAP
003FFFFFFF0000
00FFFFFFFFE000
03FFFFFFFFF800
07FFFFFFFFFC00
0FFFFFFFFFFE00
1FFFFFFFFFFF00
3FFFFFFFFFFF80
3FFFFFFFFFFF80
7FFFFFFFFFFFC0
7FFFFFFFFFFFC0
7FFFFFFFFFFFE0
FFFFFFFFFFFFE0
FFFFFFFFFFFFE0
FFFC1FFF03FFE0
FFF81FFF03FFE0
FFF81FFF01FFF0
FFF81FFF01FFF0
FFF81FFF01FFF0
FFF81FFF01FFF0
FFF81FFF01FFF0
FFF81FFF01FFF0
FFF81FFF01FFF0
FFF81FFF01FFF0
FFF81FFF01FFF0
FFF81FFF01FFF0
FFF81FFF01FFF0
FFF81FFF01FFF0
FFF81FFF01FFF0
FFF81FFF01FFF0
FFF81FFF01FFF0
FFF81FFF01FFF0
FFF81FFF01FFF0
FFF81FFF01FFF0
FFF81FFF01FFF0
FFF81FFF01FFF0
FFF81FFF01FFF0
FFF81FFF03FFE0
FFF81FFF83FFE0
FFF81FFFCFFFE0
FFF80FFFFFFFE0
FFF80FFFFFFFE0
FFF80FFFFFFFC0
FFF807FFFFFFC0
FFF807FFFFFF80
FFF803FFFFFF80
FFF803FFFFFF00
FFF801FFFFFE00
FFF800FFFFFC00
FFF8007FFFF800
FFF8001FFFF000
FFF80007FFC000
FFF80000300000
ENDCHAR
STARTCHAR 0062
ENCODING 98
SWIDTH 1057 0
DWIDTH 55 0
BBX 52 52 2 -9
BITMAP
003FF803FF8000
00FFFF1FFFE000
03FFFFBFFFF800
07FFFFFFFFFC00
0FFFFFFFFFFE00
1FFFFFFFFFFF00
3FFFFFFFFFFF80
3FFFFFFFFFFF80
7FFFFFFFFFFFC0
7FFFFFFFFFFFC0
7FFFFFFFFFFFE0
FFFFFFFFFFFFE0
FFFFFFFFFFFFE0
FFFC3FFF83FFE0
FFF81FFF03FFE0
FFF81FFF01FFF0
FFF81FFF01FFF0
FFF81FFF01FFF0
FFF81FFF01FFF0
FFF81FFF01FFF0
FFF81FFF01FFF0
FFF81FFF01FFF0
FFF81FFF01FFF0
FFF81FFF01FFF0
FFF81FFF01FFF0
FFF81FFF01FFF0
FFF81FFF01FFF0
FFF81FFF01FFF0
FFF81FFF01FFF0
FFF81FFF01FFF0
FFF81FFF01FFF0
FFF81FFF01FFF0
FFF81FFF01FFF0
FFF81FFF01FFF0
FFF81FFF01FFF0
FFF81FFF01FFF0
FFF81FFF03FFE0
FFF81FFF03FFE0
FFFE1FFF0FFFE0
FFFFFFFFFFFFE0
FFFFFFFFFFFFE0
7FFFFFFFFFFFC0
7FFFFFFFFFFFC0
7FFFFFFFFFFF80
3FFFFFFFFFFF80
1FFFFFFFFFFF00
0FFFFFFFFFFE00
07FFFFFFFFFC00
03FFFFFFFFF800
00FFFFFFFFF000
003FFFFFFFC000
0001FFFFF00000
ENDCHAR
STARTCHAR 0063
ENCODING 99
SWIDTH 1057 0
DWIDTH 55 0
BBX 52 52 2 -9
BITMAP
FFF8000001FFF0
FFF8000001FFF0
FFF8000001FFF0
FFF8000001FFF0
FFF8000001FFF0
FFF8000001FFF0
FFF8000001FFF0
FFF8000001FFF0
FFF8000001FFF0
FFF8000001FFF0
FFF8000001FFF0
FFF8000001FFF0
FFF8000001FFF0
FFF8000001FFF0
FFF8000001FFF0
FFF8000001FFF0
FFF8000001FFF0
FFF8000001FFF0
FFF8000001FFF0
FFF8000001FFF0
FFF8000001FFF0
FFF8000001FFF0
FFF8000001FFF0
FFF8000001FFF0
FFF8000001FFF0
FFF8000001FFF0
FFF8000001FFF0
FFF8000003FFF0
FFF8000003FFE0
FFF8000003FFE0
FFF8000003FFE0
FFFC000007FFE0
7FFC000007FFE0
7FFE00000FFFC0
7FFF00000FFFC0
7FFF80001FFFC0
3FFFC0007FFF80
3FFFE000FFFF80
1FFFFE0FFFFF00
1FFFFFFFFFFF00
0FFFFFFFFFFE00
0FFFFFFFFFFE00
07FFFFFFFFFC00
03FFFFFFFFF800
01FFFFFFFFF000
00FFFFFFFFE000
007FFFFFFFC000
001FFFFFFF8000
000FFFFFFE0000
0003FFFFF80000
00007FFFC00000
00000040000000
ENDCHAR
STARTCHAR 0064
ENCODING 100
SWIDTH 1057 0
DWIDTH 55 0
BBX 52 52 2 -9
BITMAP
00003FFF800000
0001FFFFF00000
0007FFFFFC0000
001FFFFFFF0000
003FFFFFFF8000
00FFFFFFFFE000
01FFFFFFFFF000
03FFFFFFFFF800
07FFFFFFFFFC00
07FFFFFFFFFC00
0FFFFFFFFFFE00
1FFFFFFFFFFF00
1FFFFFFFFFFF00
3FFFF803FFFF80
3FFFC0007FFF80
3FFF80003FFF80
7FFF00001FFFC0
7FFE00000FFFC0
7FFE000007FFC0
FFFC000007FFE0
FFFC000003FFE0
FFF8000003FFE0
FFF8000003FFE0
FFF8000003FFE0
FFF8000001FFE0
FFF8000001FFF0
FFF8000001FFF0
FFF8000001FFF0
FFF8000001FFF0
FFF8000001FFF0
FFF8000001FFF0
FFF8000001FFF0
FFF8000001FFF0
FFF8000001FFF0
FFF8000001FFF0
FFF8000001FFF0
FFF8000003FFE0
FFF8000003FFE0
FFFE00000FFFE0
FFFFFFFFFFFFE0
FFFFFFFFFFFFE0
7FFFFFFFFFFFC0
7FFFFFFFFFFFC0
7FFFFFFFFFFF80
3FFFFFFFFFFF80
1FFFFFFFFFFF00
0FFFFFFFFFFE00
07FFFFFFFFFC00
03FFFFFFFFF800
00FFFFFFFFF000
003FFFFFFFC000
0001FFFFF00000
ENDCHAR
STARTCHAR 0065
ENCODING 101
SWIDTH 1057 0
DWIDTH 55 0
BBX 52 52 2 -9
BITMAP
003FF80001FFF0
00FFFF0001FFF0
03FFFF8001FFF0
07FFFFE001FFF0
0FFFFFF001FFF0
1FFFFFF801FFF0
3FFFFFF801FFF0
3FFFFFFC01FFF0
7FFFFFFC01FFF0
7FFFFFFE01FFF0
7FFFFFFE01FFF0
FFFFFFFE01FFF0
FFFFFFFF01FFF0
FFFC3FFF01FFF0
FFF81FFF01FFF0
FFF81FFF01FFF0
FFF81FFF01FFF0
FFF81FFF01FFF0
FFF81FFF01FFF0
FFF81FFF01FFF0
FFF81FFF01FFF0
FFF81FFF01FFF0
FFF81FFF01FFF0
FFF81FFF01FFF0
FFF81FFF01FFF0
FFF81FFF01FFF0
FFF81FFF01FFF0
FFF81FFF01FFF0
FFF81FFF01FFF0
FFF81FFF01FFF0
FFF81FFF01FFF0
FFF81FFF01FFF0
FFF81FFF01FFF0
FFF81FFF01FFF0
FFF81FFF01FFF0
FFF81FFF01FFF0
FFF81FFF03FFE0
FFF81FFF03FFE0
FFFE1FFF0FFFE0
FFFFFFFFFFFFE0
FFFFFFFFFFFFE0
7FFFFFFFFFFFC0
7FFFFFFFFFFFC0
7FFFFFFFFFFF80
3FFFFFFFFFFF80
1FFFFFFFFFFF00
0FFFFFFFFFFE00
07FFFFFFFFFC00
03FFFFFFFFF800
00FFFFFFFFF000
003FFFFFFFC000
0001FFFFF00000
ENDCHAR
STARTCHAR 0066
ENCODING 102
SWIDTH 1057 0
DWIDTH 55 0
BBX 52 52 2 -9
BITMAP
FFF80000000000
FFF80000000000
FFF80000000000
FFF80000000000
FFF80000000000
FFF80000000000
FFF80000000000
FFF80000000000
FFF80000000000
FFF80000000000
FFF80000000000
FFF80000000000
FFF80000000000
FFF80000000000
FFF80000000000
FFF80000000000
FFF80000000000
FFF80000000000
FFF80000000000
FFF80000000000
FFF80000000000
FFF80000000000
FFF80000000000
FFF80000000000
FFF81FFF000000
FFF81FFF000000
FFF81FFF000000
FFF81FFF000000
FFF81FFF000000
FFF81FFF000000
FFF81FFF000000
FFF81FFF000000
FFF81FFF000000
FFF81FFF000000
FFF81FFF000000
FFF81FFF000000
FFF81FFF000000
FFF81FFF000000
FFFE1FFF000000
FFFFFFFFFFFFF0
FFFFFFFFFFFFF0
7FFFFFFFFFFFF0
7FFFFFFFFFFFF0
7FFFFFFFFFFFF0
3FFFFFFFFFFFF0
1FFFFFFFFFFFF0
0FFFFFFFFFFFF0
07FFFFFFFFFFF0
03FFFFFFFFFFF0
00FFFFFFFFFFF0
003FFFFFFFFFF0
0001FFFFFFFFF0
ENDCHAR
STARTCHAR 0067
ENCODING 103
SWIDTH 1057 0
DWIDTH 55 0
BBX 52 52 2 -9
BITMAP
FFF81FFF800000
FFF81FFFF00000
FFF81FFFFC0000
FFF81FFFFF0000
FFF81FFFFF8000
FFF81FFFFFE000
FFF81FFFFFF000
FFF81FFFFFF800
FFF81FFFFFFC00
FFF81FFFFFFC00
FFF81FFFFFFE00
FFF81FFFFFFF00
FFF81FFFFFFF00
FFF81FFFFFFF80
FFF81FFFFFFF80
FFF81FFF3FFF80
FFF81FFF1FFFC0
FFF81FFF0FFFC0
FFF81FFF07FFC0
FFF81FFF07FFE0
FFF81FFF03FFE0
FFF81FFF03FFE0
FFF81FFF03FFE0
FFF81FFF03FFE0
FFF81FFF01FFE0
FFF81FFF01FFF0
FFF81FFF01FFF0
FFF8000003FFF0
FFF8000003FFE0
FFF8000003FFE0
FFF8000003FFE0
FFFC000007FFE0
7FFC000007FFE0
7FFE00000FFFC0
7FFE00000FFFC0
7FFF80001FFFC0
3FFFC0007FFF80
3FFFF001FFFF80
1FFFFE0FFFFF00
1FFFFFFFFFFF00
0FFFFFFFFFFE00
0FFFFFFFFFFE00
07FFFFFFFFFC00
03FFFFFFFFF800
01FFFFFFFFF000
00FFFFFFFFE000
007FFFFFFFC000
001FFFFFFF8000
000FFFFFFE0000
0003FFFFF80000
00007FFFC00000
00000040000000
ENDCHAR
STARTCHAR 0068
ENCODING 104
SWIDTH 1057 0
DWIDTH 55 0
BBX 52 52 2 -9
BITMAP
FFFFFFFFFFFFF0
FFFFFFFFFFFFF0
FFFFFFFFFFFFF0
FFFFFFFFFFFFF0
FFFFFFFFFFFFF0
FFFFFFFFFFFFF0
FFFFFFFFFFFFF0
FFFFFFFFFFFFF0
FFFFFFFFFFFFF0
FFFFFFFFFFFFF0
FFFFFFFFFFFFF0
FFFFFFFFFFFFF0
FFFFFFFFFFFFF0
00000007FFC000
00000007FFC000
00000007FFC000
00000007FFC000
00000007FFC000
00000007FFC000
00000007FFC000
00000007FFC000
00000007FFC000
00000007FFC000
00000007FFC000
00000007FFC000
00000007FFC000
00000007FFC000
00000007FFC000
00000007FFC000
00000007FFC000
00000007FFC000
00000007FFC000
00000007FFC000
00000007FFC000
00000007FFC000
00000007FFC000
00000007FFC000
00000007FFC000
00000007FFC000
FFFFFFFFFFFFF0
FFFFFFFFFFFFF0
FFFFFFFFFFFFF0
FFFFFFFFFFFFF0
FFFFFFFFFFFFF0
FFFFFFFFFFFFF0
FFFFFFFFFFFFF0
FFFFFFFFFFFFF0
FFFFFFFFFFFFF0
FFFFFFFFFFFFF0
FFFFFFFFFFFFF0
FFFFFFFFFFFFF0
FFFFFFFFFFFFF0
ENDCHAR
STARTCHAR 0069
ENCODING 105
SWIDTH 1057 0
DWIDTH 55 0
BBX 52 13 2 9
BITMAP
FFFFFFFFFFFFF0
FFFFFFFFFFFFF0
FFFFFFFFFFFFF0
FFFFFFFFFFFFF0
FFFFFFFFFFFFF0
FFFFFFFFFFFFF0
FFFFFFFFFFFFF0
FFFFFFFFFFFFF0
FFFFFFFFFFFFF0
FFFFFFFFFFFFF0
FFFFFFFFFFFFF0
FFFFFFFFFFFFF0
FFFFFFFFFFFFF0
ENDCHAR
STARTCHAR 006A
ENCODING 106
SWIDTH 1057 0
DWIDTH 55 0
BBX 52 52 2 -9
BITMAP
FFFFFFFF000000
FFFFFFFFE00000
FFFFFFFFFC0000
FFFFFFFFFF0000
FFFFFFFFFF8000
FFFFFFFFFFE000
FFFFFFFFFFF000
FFFFFFFFFFF800
FFFFFFFFFFFC00
FFFFFFFFFFFE00
FFFFFFFFFFFE00
FFFFFFFFFFFF00
FFFFFFFFFFFF00
00000003FFFF80
00000000FFFF80
000000003FFFC0
000000001FFFC0
000000000FFFE0
0000000007FFE0
0000000007FFE0
0000000003FFE0
0000000003FFE0
0000000003FFE0
0000000003FFE0
0000000001FFF0
0000000001FFF0
0000000001FFF0
0000000003FFF0
0000000003FFE0
0000000003FFE0
0000000003FFE0
0000000007FFE0
0000000007FFE0
000000000FFFE0
000000000FFFC0
000000001FFFC0
000000007FFFC0
00000001FFFF80
0000000FFFFF80
000000FFFFFF00
000000FFFFFF00
000000FFFFFE00
000000FFFFFC00
000000FFFFF800
000000FFFFF000
000000FFFFE000
000000FFFFC000
000000FFFF0000
000000FFFC0000
000000FFF00000
000000FF800000
000000C0000000
ENDCHAR
STARTCHAR 006B
ENCODING 107
SWIDTH 1057 0
DWIDTH 55 0
BBX 52 52 2 -9
BITMAP
FFF8000003FFF0
FFF800001FFFF0
FFF80000FFFFF0
FFF80001FFFFF0
FFF80007FFFFF0
FFF8000FFFFFF0
FFF8001FFFFFF0
FFF8003FFFFFF0
FFF8007FFFFFF0
FFF800FFFFFFF0
FFF800FFFFFFF0
FFF801FFFFFFF0
FFFC03FFFFFFF0
7FFC03FFFF0000
7FFE07FFFC0000
7FFF07FFF80000
3FFF87FFF00000
3FFFEFFFE00000
1FFFFFFFC00000
1FFFFFFF800000
0FFFFFFF800000
0FFFFFFF800000
07FFFFFF000000
03FFFFFF000000
03FFFFFF000000
01FFFFFF000000
00FFFFFF000000
003FFFFF000000
001FFFFF000000
0007FFFF000000
0001FFFF000000
00001FFF000000
00001FFF000000
00001FFF000000
00001FFF000000
00001FFF000000
00001FFF000000
00001FFF000000
00001FFF000000
FFFFFFFFFFFFF0
FFFFFFFFFFFFF0
FFFFFFFFFFFFF0
FFFFFFFFFFFFF0
FFFFFFFFFFFFF0
FFFFFFFFFFFFF0
FFFFFFFFFFFFF0
FFFFFFFFFFFFF0
FFFFFFFFFFFFF0
FFFFFFFFFFFFF0
FFFFFFFFFFFFF0
FFFFFFFFFFFFF0
FFFFFFFFFFFFF0
ENDCHAR
STARTCHAR 006C
ENCODING 108
SWIDTH 1057 0
DWIDTH 55 0
BBX 52 52 2 -9
BITMAP
0000000001FFF0
0000000001FFF0
0000000001FFF0
0000000001FFF0
0000000001FFF0
0000000001FFF0
0000000001FFF0
0000000001FFF0
0000000001FFF0
0000000001FFF0
0000000001FFF0
0000000001FFF0
0000000001FFF0
0000000001FFF0
0000000001FFF0
0000000001FFF0
0000000001FFF0
0000000001FFF0
0000000001FFF0
0000000001FFF0
0000000001FFF0
0000000001FFF0
0000000001FFF0
0000000001FFF0
0000000001FFF0
0000000001FFF0
0000000001FFF0
0000000001FFF0
0000000001FFF0
0000000001FFF0
0000000001FFF0
0000000001FFF0
0000000001FFF0
0000000001FFF0
0000000001FFF0
0000000001FFF0
0000000003FFF0
0000000003FFE0
000000000FFFE0
FFFFFFFFFFFFE0
FFFFFFFFFFFFE0
FFFFFFFFFFFFE0
FFFFFFFFFFFFC0
FFFFFFFFFFFFC0
FFFFFFFFFFFF80
FFFFFFFFFFFF00
FFFFFFFFFFFF00
FFFFFFFFFFFE00
FFFFFFFFFFF800
FFFFFFFFFFE000
FFFFFFFFFF8000
FFFFFFFFF00000
ENDCHAR
STARTCHAR 006D
ENCODING 109
SWIDTH 1057 0
DWIDTH 55 0
BBX 52 52 2 -9
BITMAP
001FFFFFFFFFF0
00FFFFFFFFFFF0
03FFFFFFFFFFF0
07FFFFFFFFFFF0
0FFFFFFFFFFFF0
1FFFFFFFFFFFF0
3FFFFFFFFFFFF0
3FFFFFFFFFFFF0
7FFFFFFFFFFFF0
7FFFFFFFFFFFF0
FFFFFFFFFFFFF0
FFFFFFFFFFFFF0
FFFFFFFFFFFFF0
FFFC0000000000
FFF80000000000
FFF80000000000
FFF80000000000
FFF80000000000
FFFC0000000000
FFFFFFFFFFFFF0
FFFFFFFFFFFFF0
FFFFFFFFFFFFF0
7FFFFFFFFFFFF0
7FFFFFFFFFFFF0
3FFFFFFFFFFFF0
3FFFFFFFFFFFF0
3FFFFFFFFFFFF0
7FFFFFFFFFFFF0
7FFFFFFFFFFFF0
FFFFFFFFFFFFF0
FFFFFFFFFFFFF0
FFFFFFFFFFFFF0
FFFE0000000000
FFF80000000000
FFF80000000000
FFF80000000000
FFF80000000000
FFF80000000000
FFFE0000000000
FFFFFFFFFFFFF0
FFFFFFFFFFFFF0
7FFFFFFFFFFFF0
7FFFFFFFFFFFF0
7FFFFFFFFFFFF0
3FFFFFFFFFFFF0
1FFFFFFFFFFFF0
0FFFFFFFFFFFF0
07FFFFFFFFFFF0
03FFFFFFFFFFF0
00FFFFFFFFFFF0
003FFFFFFFFFF0
0001FFFFFFFFF0
ENDCHAR
STARTCHAR 006E
ENCODING 110
SWIDTH 1057 0
DWIDTH 55 0
BBX 52 52 2 -9
BITMAP
00000FFFFFFFF0
0000FFFFFFFFF0
0003FFFFFFFFF0
000FFFFFFFFFF0
003FFFFFFFFFF0
007FFFFFFFFFF0
01FFFFFFFFFFF0
03FFFFFFFFFFF0
07FFFFFFFFFFF0
07FFFFFFFFFFF0
0FFFFFFFFFFFF0
1FFFFFFFFFFFF0
1FFFFFFFFFFFF0
3FFFF800000000
3FFFE000000000
7FFF8000000000
7FFF0000000000
7FFE0000000000
FFFC0000000000
FFFC0000000000
FFF80000000000
FFF80000000000
FFF80000000000
FFF80000000000
FFF80000000000
FFF80000000000
FFF80000000000
FFF80000000000
FFF80000000000
FFF80000000000
FFF80000000000
FFFC0000000000
FFFC0000000000
FFFE0000000000
7FFE0000000000
7FFF8000000000
7FFFC000000000
3FFFF000000000
3FFFFE00000000
1FFFFFFFFFFFF0
0FFFFFFFFFFFF0
0FFFFFFFFFFFF0
07FFFFFFFFFFF0
03FFFFFFFFFFF0
01FFFFFFFFFFF0
00FFFFFFFFFFF0
007FFFFFFFFFF0
001FFFFFFFFFF0
0007FFFFFFFFF0
0001FFFFFFFFF0
00003FFFFFFFF0
0000007FFFFFF0
ENDCHAR
STARTCHAR 006F
ENCODING 111
SWIDTH 1057 0
DWIDTH 55 0
BBX 52 52 2 -9
BITMAP
00001FFF000000
0000FFFFE00000
0003FFFFF80000
000FFFFFFE0000
003FFFFFFF8000
007FFFFFFFC000
00FFFFFFFFE000
01FFFFFFFFF000
03FFFFFFFFF800
07FFFFFFFFFC00
0FFFFFFFFFFE00
0FFFFFFFFFFE00
1FFFFFFFFFFF00
1FFFF803FFFF80
3FFFE000FFFF80
3FFFC0003FFFC0
7FFF00001FFFC0
7FFE00000FFFC0
FFFE00000FFFE0
FFFC000007FFE0
FFFC000007FFE0
FFF8000003FFE0
FFF8000003FFE0
FFF8000003FFE0
FFF8000001FFF0
FFF8000001FFF0
FFF8000001FFF0
FFF8000003FFF0
FFF8000003FFE0
FFF8000003FFE0
FFF8000003FFE0
FFFC000007FFE0
FFFC000007FFE0
7FFE00000FFFC0
7FFF00001FFFC0
7FFF80003FFFC0
3FFFC0007FFF80
3FFFF001FFFF80
1FFFFE0FFFFF00
0FFFFFFFFFFF00
0FFFFFFFFFFE00
07FFFFFFFFFC00
03FFFFFFFFF800
01FFFFFFFFF000
00FFFFFFFFE000
007FFFFFFFC000
003FFFFFFF8000
001FFFFFFF0000
0007FFFFFC0000
0001FFFFF00000
00003FFF800000
00000040000000
ENDCHAR
STARTCHAR 0070
ENCODING 112
SWIDTH 1057 0
DWIDTH 55 0
BBX 52 52 2 -9
BITMAP
003FF800000000
00FFFF00000000
03FFFF80000000
07FFFFE0000000
0FFFFFF0000000
1FFFFFF8000000
3FFFFFF8000000
3FFFFFFC000000
7FFFFFFC000000
7FFFFFFE000000
7FFFFFFE000000
FFFFFFFE000000
FFFFFFFF000000
FFFC3FFF000000
FFF81FFF000000
FFF81FFF000000
FFF81FFF000000
FFF81FFF000000
FFF81FFF000000
FFF81FFF000000
FFF81FFF000000
FFF81FFF000000
FFF81FFF000000
FFF81FFF000000
FFF81FFF000000
FFF81FFF000000
FFF81FFF000000
FFF81FFF000000
FFF81FFF000000
FFF81FFF000000
FFF81FFF000000
FFF81FFF000000
FFF81FFF000000
FFF81FFF000000
FFF81FFF000000
FFF81FFF000000
FFF81FFF000000
FFF81FFF000000
FFFE1FFF000000
FFFFFFFFFFFFF0
FFFFFFFFFFFFF0
7FFFFFFFFFFFF0
7FFFFFFFFFFFF0
7FFFFFFFFFFFF0
3FFFFFFFFFFFF0
1FFFFFFFFFFFF0
0FFFFFFFFFFFF0
07FFFFFFFFFFF0
03FFFFFFFFFFF0
00FFFFFFFFFFF0
003FFFFFFFFFF0
0001FFFFFFFFF0
ENDCHAR
STARTCHAR 0071
ENCODING 113
SWIDTH 1057 0
DWIDTH 55 0
BBX 52 52 2 -9
BITMAP
00001FFF000000
0000FFFFE00000
0003FFFFF80000
000FFFFFFE0000
003FFFFFFF8000
007FFFFFFFC000
00FFFFFFFFE000
01FFFFFFFFF000
03FFFFFFFFF800
07FFFFFFFFFC00
0FFFFFFFFFFE00
0FFFFFFFFFFE00
1FFFFFFFFFFF00
1FFFF807FFFF80
3FFFE00FFFFF80
3FFFC01FFFFFC0
7FFF003FFFFFC0
7FFE007FFFFFC0
FFFE00FFFFFFE0
FFFC01FFFFFFE0
FFFC03FFFFFFE0
FFF807FFFFFFE0
FFF80FFFFFFFE0
FFF807FFFBFFE0
FFF803FFF3FFF0
FFF801FFE1FFF0
FFF800FFC1FFF0
FFF8007F83FFF0
FFF8003F03FFE0
FFF8001E03FFE0
FFF8000C03FFE0
FFFC000007FFE0
FFFC000007FFE0
7FFE00000FFFC0
7FFF00001FFFC0
7FFF80003FFFC0
3FFFC0007FFF80
3FFFF001FFFF80
1FFFFE0FFFFF00
0FFFFFFFFFFF00
0FFFFFFFFFFE00
07FFFFFFFFFC00
03FFFFFFFFF800
01FFFFFFFFF000
00FFFFFFFFE000
007FFFFFFFC000
003FFFFFFF8000
001FFFFFFF0000
0007FFFFFC0000
0001FFFFF00000
00003FFF800000
00000040000000
ENDCHAR
STARTCHAR 0072
ENCODING 114
SWIDTH 1057 0
DWIDTH 55 0
BBX 52 52 2 -9
BITMAP
003FF80001FFF0
00FFFF000FFFF0
03FFFF807FFFF0
07FFFFE1FFFFF0
0FFFFFF7FFFFF0
1FFFFFFFFFFFF0
3FFFFFFFFFFFF0
3FFFFFFFFFFFF0
7FFFFFFFFFFFF0
7FFFFFFFFFFFF0
7FFFFFFFFFFFF0
FFFFFFFFFFFFF0
FFFFFFFFFFFFF0
FFFC3FFFFF0000
FFF81FFFFC0000
FFF81FFFF80000
FFF81FFFF00000
FFF81FFFE00000
FFF81FFFC00000
FFF81FFF800000
FFF81FFF800000
FFF81FFF800000
FFF81FFF000000
FFF81FFF000000
FFF81FFF000000
FFF81FFF000000
FFF81FFF000000
FFF81FFF000000
FFF81FFF000000
FFF81FFF000000
FFF81FFF000000
FFF81FFF000000
FFF81FFF000000
FFF81FFF000000
FFF81FFF000000
FFF81FFF000000
FFF81FFF000000
FFF81FFF000000
FFFE1FFF000000
FFFFFFFFFFFFF0
FFFFFFFFFFFFF0
7FFFFFFFFFFFF0
7FFFFFFFFFFFF0
7FFFFFFFFFFFF0
3FFFFFFFFFFFF0
1FFFFFFFFFFFF0
0FFFFFFFFFFFF0
07FFFFFFFFFFF0
03FFFFFFFFFFF0
00FFFFFFFFFFF0
003FFFFFFFFFF0
0001FFFFFFFFF0
ENDCHAR
STARTCHAR 0073
ENCODING 115
SWIDTH 1057 0
DWIDTH 55 0
BBX 52 52 2 -9
BITMAP
FFF80003FF8000
FFF8001FFFE000
FFF8003FFFF800
FFF800FFFFFC00
FFF801FFFFFE00
FFF801FFFFFF00
FFF803FFFFFF80
FFF807FFFFFF80
FFF807FFFFFFC0
FFF80FFFFFFFC0
FFF80FFFFFFFE0
FFF80FFFFFFFE0
FFF81FFFFFFFE0
FFF81FFF83FFE0
FFF81FFF03FFE0
FFF81FFF01FFF0
FFF81FFF01FFF0
FFF81FFF01FFF0
FFF81FFF01FFF0
FFF81FFF01FFF0
FFF81FFF01FFF0
FFF81FFF01FFF0
FFF81FFF01FFF0
FFF81FFF01FFF0
FFF81FFF01FFF0
FFF81FFF01FFF0
FFF81FFF01FFF0
FFF81FFF01FFF0
FFF81FFF01FFF0
FFF81FFF01FFF0
FFF81FFF01FFF0
FFF81FFF01FFF0
FFF81FFF01FFF0
FFF81FFF01FFF0
FFF81FFF01FFF0
FFF81FFF01FFF0
FFF81FFF01FFF0
FFF83FFF01FFF0
FFFE7FFF01FFF0
FFFFFFFE01FFF0
FFFFFFFE01FFF0
7FFFFFFE01FFF0
7FFFFFFC01FFF0
3FFFFFFC01FFF0
3FFFFFF801FFF0
1FFFFFF801FFF0
0FFFFFF001FFF0
07FFFFE001FFF0
03FFFFC001FFF0
01FFFF0001FFF0
007FFC0001FFF0
0001800001FFF0
ENDCHAR
STARTCHAR 0074
ENCODING 116
SWIDTH 1057 0
DWIDTH 55 0
BBX 52 52 2 -9
BITMAP
FFF80000000000
FFF80000000000
FFF80000000000
FFF80000000000
FFF80000000000
FFF80000000000
FFF80000000000
FFF80000000000
FFF80000000000
FFF80000000000
FFF80000000000
FFF80000000000
FFF80000000000
FFF80000000000
FFF80000000000
FFF80000000000
FFF80000000000
FFF80000000000
FFF80000000000
FFFFFFFFFFFFF0
FFFFFFFFFFFFF0
FFFFFFFFFFFFF0
FFFFFFFFFFFFF0
FFFFFFFFFFFFF0
FFFFFFFFFFFFF0
FFFFFFFFFFFFF0
FFFFFFFFFFFFF0
FFFFFFFFFFFFF0
FFFFFFFFFFFFF0
FFFFFFFFFFFFF0
FFFFFFFFFFFFF0
FFFFFFFFFFFFF0
FFF80000000000
FFF80000000000
FFF80000000000
FFF80000000000
FFF80000000000
FFF80000000000
FFF80000000000
FFF80000000000
FFF80000000000
FFF80000000000
FFF80000000000
FFF80000000000
FFF80000000000
FFF80000000000
FFF80000000000
FFF80000000000
FFF80000000000
FFF80000000000
FFF80000000000
FFF80000000000
ENDCHAR
STARTCHAR 0075
ENCODING 117
SWIDTH 1057 0
DWIDTH 55 0
BBX 52 52 2 -9
BITMAP
FFFFFFFF000000
FFFFFFFFE00000
FFFFFFFFFC0000
FFFFFFFFFF0000
FFFFFFFFFF8000
FFFFFFFFFFE000
FFFFFFFFFFF000
FFFFFFFFFFF800
FFFFFFFFFFFC00
FFFFFFFFFFFE00
FFFFFFFFFFFE00
FFFFFFFFFFFF00
FFFFFFFFFFFF00
00000003FFFF80
00000000FFFF80
000000003FFFC0
000000001FFFC0
000000000FFFE0
0000000007FFE0
0000000007FFE0
0000000003FFE0
0000000003FFE0
0000000003FFE0
0000000003FFE0
0000000001FFF0
0000000001FFF0
0000000001FFF0
0000000003FFF0
0000000003FFE0
0000000003FFE0
0000000003FFE0
0000000007FFE0
0000000007FFE0
000000000FFFE0
000000000FFFC0
000000001FFFC0
000000007FFFC0
00000001FFFF80
0000000FFFFF80
FFFFFFFFFFFF00
FFFFFFFFFFFF00
FFFFFFFFFFFE00
FFFFFFFFFFFC00
FFFFFFFFFFF800
FFFFFFFFFFF000
FFFFFFFFFFE000
FFFFFFFFFFC000
FFFFFFFFFF0000
FFFFFFFFFC0000
FFFFFFFFF00000
FFFFFFFF800000
FFFFFFC0000000
ENDCHAR
STARTCHAR 0076
ENCODING 118
SWIDTH 1057 0
DWIDTH 55 0
BBX 52 52 2 -9
BITMAP
FFFFFFFF800000
FFFFFFFFF00000
FFFFFFFFFC0000
FFFFFFFFFF0000
FFFFFFFFFF8000
FFFFFFFFFFE000
FFFFFFFFFFF000
FFFFFFFFFFF800
FFFFFFFFFFFC00
FFFFFFFFFFFC00
FFFFFFFFFFFE00
FFFFFFFFFFFF00
FFFFFFFFFFFF00
00000003FFFF80
00000000FFFF80
000000003FFF80
000000001FFFC0
000000000FFFC0
0000000007FFC0
0000000007FFE0
0000000003FFE0
0000000003FFE0
0000000003FFE0
0000000003FFE0
0000000001FFE0
0000000001FFF0
0000000001FFF0
0000000001FFF0
0000000001FFF0
0000000001FFF0
0000000001FFF0
0000000001FFF0
0000000001FFF0
0000000001FFF0
0000000001FFF0
0000000001FFF0
0000000001FFF0
0000000001FFF0
0000000001FFF0
FFFFFFFFFFFFF0
FFFFFFFFFFFFF0
FFFFFFFFFFFFF0
FFFFFFFFFFFFF0
FFFFFFFFFFFFF0
FFFFFFFFFFFFF0
FFFFFFFFFFFFF0
FFFFFFFFFFFFF0
FFFFFFFFFFFFF0
FFFFFFFFFFFFF0
FFFFFFFFFFFFF0
FFFFFFFFFFFFF0
FFFFFFFFFFFFF0
ENDCHAR
STARTCHAR 0077
ENCODING 119
SWIDTH 1057 0
DWIDTH 55 0
BBX 52 52 2 -9
BITMAP
FFFFFFFFFF0000
FFFFFFFFFFE000
FFFFFFFFFFF800
FFFFFFFFFFFC00
FFFFFFFFFFFE00
FFFFFFFFFFFF00
FFFFFFFFFFFF80
FFFFFFFFFFFF80
FFFFFFFFFFFFC0
FFFFFFFFFFFFC0
FFFFFFFFFFFFE0
FFFFFFFFFFFFE0
FFFFFFFFFFFFE0
0000000003FFE0
0000000003FFE0
0000000001FFF0
0000000001FFF0
0000000003FFF0
0000000003FFE0
FFFFFFFFFFFFE0
FFFFFFFFFFFFE0
FFFFFFFFFFFFE0
FFFFFFFFFFFFC0
FFFFFFFFFFFFC0
FFFFFFFFFFFFC0
FFFFFFFFFFFF80
FFFFFFFFFFFF80
FFFFFFFFFFFFC0
FFFFFFFFFFFFC0
FFFFFFFFFFFFE0
FFFFFFFFFFFFE0
FFFFFFFFFFFFE0
0000000007FFE0
0000000003FFE0
0000000003FFF0
0000000001FFF0
0000000003FFF0
0000000003FFE0
000000000FFFE0
FFFFFFFFFFFFE0
FFFFFFFFFFFFE0
FFFFFFFFFFFFE0
FFFFFFFFFFFFC0
FFFFFFFFFFFFC0
FFFFFFFFFFFF80
FFFFFFFFFFFF00
FFFFFFFFFFFF00
FFFFFFFFFFFE00
FFFFFFFFFFF800
FFFFFFFFFFE000
FFFFFFFFFF8000
FFFFFFFFF00000
ENDCHAR
STARTCHAR 0078
ENCODING 120
SWIDTH 1057 0
DWIDTH 55 0
BBX 52 52 2 -9
BITMAP
FFF8000001FFF0
FFF8000001FFF0
FFF8000001FFF0
FFF8000001FFF0
FFF8000001FFF0
FFF8000001FFF0
FFF8000001FFF0
FFF8000003FFF0
FFF8000003FFE0
FFF8000003FFE0
FFF8000003FFE0
FFFC000003FFE0
FFFC000007FFE0
7FFE000007FFC0
7FFE00000FFFC0
7FFF00001FFFC0
3FFF80003FFFC0
3FFFC0007FFF80
3FFFF803FFFF80
1FFFFFFFFFFF00
1FFFFFFFFFFF00
0FFFFFFFFFFE00
07FFFFFFFFFC00
07FFFFFFFFFC00
03FFFFFFFFF800
01FFFFFFFFF000
01FFFFFFFFF000
03FFFFFFFFF800
07FFFFFFFFFC00
0FFFFFFFFFFE00
0FFFFFFFFFFE00
1FFFFFFFFFFF00
1FFFFC07FFFF00
3FFFE000FFFF80
3FFFC0007FFF80
7FFF00001FFFC0
7FFF00000FFFC0
7FFE00000FFFC0
FFFC000007FFE0
FFFC000007FFE0
FFF8000003FFE0
FFF8000003FFE0
FFF8000003FFE0
FFF8000003FFE0
FFF8000001FFF0
FFF8000001FFF0
FFF8000001FFF0
FFF8000001FFF0
FFF8000001FFF0
FFF8000001FFF0
FFF8000001FFF0
FFF8000001FFF0
ENDCHAR
STARTCHAR 0079
ENCODING 121
SWIDTH 1057 0
DWIDTH 55 0
BBX 52 52 2 -9
BITMAP
FFFFFFFFFF0000
FFFFFFFFFFE000
FFFFFFFFFFF800
FFFFFFFFFFFC00
FFFFFFFFFFFE00
FFFFFFFFFFFF00
FFFFFFFFFFFF80
FFFFFFFFFFFF80
FFFFFFFFFFFFC0
FFFFFFFFFFFFC0
FFFFFFFFFFFFE0
FFFFFFFFFFFFE0
FFFFFFFFFFFFE0
00001FFF03FFE0
00001FFF03FFE0
00001FFF01FFF0
00001FFF01FFF0
00001FFF01FFF0
00001FFF01FFF0
00001FFF01FFF0
00001FFF01FFF0
00001FFF01FFF0
00001FFF01FFF0
00001FFF01FFF0
00001FFF01FFF0
00001FFF01FFF0
00001FFF01FFF0
00001FFF01FFF0
00001FFF01FFF0
00001FFF01FFF0
00001FFF01FFF0
00001FFF01FFF0
00001FFF01FFF0
00001FFF01FFF0
00001FFF01FFF0
00001FFF01FFF0
00001FFF01FFF0
00003FFF01FFF0
00007FFF01FFF0
FFFFFFFE01FFF0
FFFFFFFE01FFF0
FFFFFFFE01FFF0
FFFFFFFC01FFF0
FFFFFFFC01FFF0
FFFFFFF801FFF0
FFFFFFF801FFF0
FFFFFFF001FFF0
FFFFFFE001FFF0
FFFFFFC001FFF0
FFFFFF0001FFF0
FFFFFC0001FFF0
FFFF800001FFF0
ENDCHAR
STARTCHAR 007A
ENCODING 122
SWIDTH 1057 0
DWIDTH 55 0
BBX 52 52 2 -9
BITMAP
FFF0000001FFF0
FFF8000001FFF0
FFFC000001FFF0
FFFE000001FFF0
FFFF000001FFF0
FFFF800001FFF0
FFFFC00001FFF0
FFFFC00001FFF0
FFFFE00001FFF0
FFFFF00001FFF0
FFFFF80001FFF0
FFFFFC0001FFF0
FFFFFE0001FFF0
FFFFFF0001FFF0
FFFFFF8001FFF0
FFFFFFC001FFF0
FFFFFFC001FFF0
FFFFFFE001FFF0
FFFFFFF001FFF0
FFFFFFF801FFF0
FFFFFFFC01FFF0
FFFFFFFE01FFF0
FFFBFFFF01FFF0
FFF9FFFF81FFF0
FFF8FFFF81FFF0
FFF8FFFFC1FFF0
FFF87FFFE1FFF0
FFF83FFFF1FFF0
FFF81FFFF9FFF0
FFF80FFFFDFFF0
FFF807FFFFFFF0
FFF803FFFFFFF0
FFF801FFFFFFF0
FFF801FFFFFFF0
FFF800FFFFFFF0
FFF8007FFFFFF0
FFF8003FFFFFF0
FFF8001FFFFFF0
FFF8000FFFFFF0
FFF80007FFFFF0
FFF80003FFFFF0
FFF80001FFFFF0
FFF80001FFFFF0
FFF80000FFFFF0
FFF800007FFFF0
FFF800003FFFF0
FFF800001FFFF0
FFF800000FFFF0
FFF8000007FFF0
FFF8000003FFF0
FFF8000003FFF0
FFF8000001FFF0
ENDCHAR
STARTCHAR 007B
ENCODING 123
SWIDTH 1057 0
DWIDTH 55 0
BBX 52 23 2 4
BITMAP
FFF8000001FFF0
FFF8000001FFF0
FFF8000001FFE0
FFF8000003FFE0
FFFC000007FFE0
FFFFE0007FFFE0
FFFFFC07FFFFE0
7FFFFF1FFFFFE0
7FFFFFFFFFFFC0
7FFFFFFFFFFFC0
3FFFFFFFFFFF80
3FFFFFFFFFFF80
1FFFFFFFFFFF00
0FFFFFFFFFFE00
07FFFFFFFFFC00
03FFFFFFFFF800
00FFFFFFFFE000
003FFFFFFF8000
00007FFFC00000
00003FFF800000
00001FFF000000
00001FFF000000
00001FFF000000
ENDCHAR
STARTCHAR 007C
ENCODING 124
SWIDTH 1250 0
DWIDTH 65 0
BBX 61 13 2 9
BITMAP
FFFFFFFFFFFFFFF8
FFFFFFFFFFFFFFF8
FFFFFFFFFFFFFFF8
FFFFFFFFFFFFFFF8
FFFFFFFFFFFFFFF8
FFFFFFFFFFFFFFF8
FFFFFFFFFFFFFFF8
FFFFFFFFFFFFFFF8
FFFFFFFFFFFFFFF8
FFFFFFFFFFFFFFF8
FFFFFFFFFFFFFFF8
FFFFFFFFFFFFFFF8
FFFFFFFFFFFFFFF8
ENDCHAR
STARTCHAR 007D
ENCODING 125
SWIDTH 1057 0
DWIDTH 55 0
BBX 52 23 2 4
BITMAP
00001FFF000000
00001FFF000000
00001FFF000000
00001FFF000000
00003FFF800000
000FFFFFFE0000
007FFFFFFFC000
01FFFFFFFFF000
07FFFFFFFFFC00
0FFFFFFFFFFE00
1FFFFFFFFFFF00
1FFFFFFFFFFF00
3FFFFFFFFFFF80
3FFFFFFFFFFFC0
7FFFFFFFFFFFC0
7FFFFFBFFFFFC0
FFFFFE0FFFFFE0
FFFFF001FFFFE0
FFFC000007FFE0
FFF8000003FFE0
FFF8000003FFF0
FFF8000001FFF0
FFF8000001FFF0
ENDCHAR
STARTCHAR 007E
ENCODING 126
SWIDTH 692 0
DWIDTH 36 0
BBX 32 52 2 -9
BITMAP
007FF800
007FFE00
007FFF80
007FFFE0
007FFFF0
007FFFF8
007FFFF8
007FFFFC
007FFFFC
007FFFFE
007FFFFE
007FFFFF
007FFFFF
00003FFF
00001FFF
00001FFF
00001FFF
00001FFF
00003FFF
0007FFFF
003FFFFF
01FFFFFE
03FFFFFE
0FFFFFFE
1FFFFFFC
1FFFFFF8
3FFFFFF8
7FFFFFF0
7FFFFFE0
FFFFFF80
FFFFFE00
FFFFF000
FFFE0000
FFF80000
FFF80000
FFF80000
FFF80000
FFF80000
FFFE0000
FFFFFC00
FFFFFC00
FFFFFC00
7FFFFC00
7FFFFC00
3FFFFC00
1FFFFC00
0FFFFC00
07FFFC00
03FFFC00
00FFFC00
003FFC00
0001FC00
ENDCHAR
STARTCHAR 00C6
ENCODING 198
SWIDTH 1057 0
DWIDTH 55 0
BBX 52 52 2 -9
BITMAP
FFF8000001FFF0
FFF8000001FFF0
FFF8000001FFF0
FFF8000001FFF0
FFF8000001FFF0
FFF8000001FFF0
FFF8000001FFF0
FFF8000001FFF0
FFF8000001FFF0
FFF81FFF01FFF0
FFF81FFF01FFF0
FFF81FFF01FFF0
FFF81FFF01FFF0
FFF81FFF01FFF0
FFF81FFF01FFF0
FFF81FFF01FFF0
FFF81FFF01FFF0
FFF81FFF01FFF0
FFF81FFF01FFF0
FFFFFFFFFFFFF0
FFFFFFFFFFFFF0
FFFFFFFFFFFFF0
FFFFFFFFFFFFF0
FFFFFFFFFFFFF0
FFFFFFFFFFFFF0
FFFFFFFFFFFFF0
FFFFFFFFFFFFF0
FFFFFFFFFFFFF0
FFFFFFFFFFFFF0
FFFFFFFFFFFFF0
FFFFFFFFFFFFF0
FFFFFFFFFFFFF0
FFF81FFF000000
FFF81FFF000000
FFF81FFF000000
FFF81FFF000000
FFF81FFF000000
FFF81FFF000000
FFFE1FFF000000
FFFFFFFFFFFFF0
FFFFFFFFFFFFF0
7FFFFFFFFFFFF0
7FFFFFFFFFFFF0
7FFFFFFFFFFFF0
3FFFFFFFFFFFF0
1FFFFFFFFFFFF0
0FFFFFFFFFFFF0
07FFFFFFFFFFF0
03FFFFFFFFFFF0
00FFFFFFFFFFF0
003FFFFFFFFFF0
0001FFFFFFFFF0
ENDCHAR
STARTCHAR 00C8
ENCODING 200
SWIDTH 1057 0
DWIDTH 55 0
BBX 52 52 2 -9
BITMAP
00000FFFFFFFF0
0000FFFFFFFFF0
0003FFFFFFFFF0
000FFFFFFFFFF0
003FFFFFFFFFF0
007FFFFFFFFFF0
01FFFFFFFFFFF0
03FFFFFFFFFFF0
07FFFFFFFFFFF0
07FFFFFFFFFFF0
0FFFFFFFFFFFF0
1FFFFFFFFFFFF0
1FFFFFFFFFFFF0
3FFFFFFF000000
3FFFFFFF000000
7FFF9FFF000000
7FFF1FFF000000
7FFE1FFF000000
FFFC1FFF000000
FFFC1FFF000000
FFF81FFF000000
FFF81FFF000000
FFF81FFF000000
FFF81FFF000000
FFF81FFF000000
FFF81FFF000000
FFF81FFF000000
FFF81FFF000000
FFF81FFF000000
FFF81FFF000000
FFF81FFF000000
FFFC1FFF000000
FFFC1FFF000000
FFFE1FFF000000
7FFE1FFF000000
7FFF1FFF000000
7FFFDFFF000000
3FFFFFFF000000
3FFFFFFF000000
1FFFFFFFFFFFF0
0FFFFFFFFFFFF0
0FFFFFFFFFFFF0
07FFFFFFFFFFF0
03FFFFFFFFFFF0
01FFFFFFFFFFF0
00FFFFFFFFFFF0
007FFFFFFFFFF0
001FFFFFFFFFF0
0007FFFFFFFFF0
0001FFFFFFFFF0
00003FFFFFFFF0
0000007FFFFFF0
ENDCHAR
STARTCHAR 00C9
ENCODING 201
SWIDTH 1057 0
DWIDTH 55 0
BBX 52 52 2 -9
BITMAP
003FFFFFFFFFF0
00FFFFFFFFFFF0
03FFFFFFFFFFF0
07FFFFFFFFFFF0
0FFFFFFFFFFFF0
1FFFFFFFFFFFF0
3FFFFFFFFFFFF0
3FFFFFFFFFFFF0
7FFFFFFFFFFFF0
7FFFFFFFFFFFF0
7FFFFFFFFFFFF0
FFFFFFFFFFFFF0
FFFFFFFFFFFFF0
FFFC1FFF01FFF0
FFF81FFF01FFF0
FFF81FFF01FFF0
FFF81FFF01FFF0
FFF81FFF01FFF0
FFF81FFF01FFF0
FFF81FFF01FFF0
FFF81FFF01FFF0
FFF81FFF01FFF0
FFF81FFF01FFF0
FFF81FFF01FFF0
FFF81FFF01FFF0
FFF81FFF01FFF0
FFF81FFF01FFF0
FFF81FFF01FFF0
FFF81FFF01FFF0
FFF81FFF01FFF0
FFF81FFF01FFF0
FFF81FFF01FFF0
FFF81FFF01FFF0
FFF81FFF01FFF0
FFF81FFF01FFF0
FFF81FFF01FFF0
FFF81FFF03FFE0
FFF81FFF83FFE0
FFF81FFFCFFFE0
FFF80FFFFFFFE0
FFF80FFFFFFFE0
FFF80FFFFFFFC0
FFF807FFFFFFC0
FFF807FFFFFF80
FFF803FFFFFF80
FFF803FFFFFF00
FFF801FFFFFE00
FFF800FFFFFC00
FFF8007FFFF800
FFF8001FFFF000
FFF80007FFC000
FFF80000300000
ENDCHAR
STARTCHAR 00CA
ENCODING 202
SWIDTH 1057 0
DWIDTH 55 0
BBX 52 52 2 -9
BITMAP
FFF8000001FFF0
FFF8000001FFF0
FFF8000001FFF0
FFF8000001FFF0
FFF8000001FFF0
FFF8000001FFF0
FFF8000001FFF0
FFF8000001FFF0
FFF8000001FFF0
FFF8000001FFF0
FFF8000001FFF0
FFF8000001FFF0
FFF8000001FFF0
FFF8000001FFF0
FFF8000001FFF0
FFF8000001FFF0
FFF8000001FFF0
FFF8000001FFF0
FFF8000001FFF0
FFF8000001FFF0
FFF8000001FFF0
FFF8000001FFF0
FFF8000001FFF0
FFF8000001FFF0
FFF81FFF01FFF0
FFF81FFF01FFF0
FFF81FFF01FFF0
FFF81FFF01FFF0
FFF81FFF01FFF0
FFF81FFF01FFF0
FFF81FFF01FFF0
FFF81FFF01FFF0
FFF81FFF01FFF0
FFF81FFF01FFF0
FFF81FFF01FFF0
FFF81FFF01FFF0
FFF81FFF03FFE0
FFF83FFF83FFE0
FFFE7FFFCFFFE0
FFFFFFFFFFFFE0
FFFFFFFFFFFFE0
7FFFFFFFFFFFC0
7FFFFFFFFFFFC0
3FFFFFFFFFFF80
3FFFFFFFFFFF80
1FFFFFFFFFFF00
0FFFFFFFFFFE00
07FFFFFFFFFC00
03FFFFFFFFF800
01FFFF1FFFF000
007FFC07FFC000
00018000300000
ENDCHAR
STARTCHAR 00CB
ENCODING 203
SWIDTH 1057 0
DWIDTH 55 0
BBX 52 52 2 -9
BITMAP
FFF8000001FFF0
FFF8000001FFF0
FFF8000001FFF0
FFF8000001FFF0
FFF8000001FFF0
FFF8000001FFF0
FFF8000001FFF0
FFF8000001FFF0
FFF8000001FFF0
FFF8000001FFF0
FFF8000001FFF0
FFF8000001FFF0
FFF8000001FFF0
FFF8000001FFF0
FFF8000001FFF0
FFF8000001FFF0
FFF8000001FFF0
FFF8000001FFF0
FFF8000001FFF0
FFF8000001FFF0
FFF8000001FFF0
FFF8000001FFF0
FFF8000001FFF0
FFF8000001FFF0
FFF81FFF01FFF0
FFF81FFF01FFF0
FFF81FFF01FFF0
FFF81FFF01FFF0
FFF81FFF01FFF0
FFF81FFF01FFF0
FFF81FFF01FFF0
FFF81FFF01FFF0
FFF81FFF01FFF0
FFF81FFF01FFF0
FFF81FFF01FFF0
FFF81FFF01FFF0
FFF81FFF03FFF0
FFF81FFF03FFE0
FFFE1FFF0FFFE0
FFFFFFFFFFFFE0
FFFFFFFFFFFFE0
7FFFFFFFFFFFE0
7FFFFFFFFFFFC0
3FFFFFFFFFFFC0
3FFFFFFFFFFF80
1FFFFFFFFFFF00
0FFFFFFFFFFF00
07FFFFFFFFFE00
03FFFFFFFFF800
01FFFFFFFFE000
007FFFFFFF8000
0001FFFFF00000
ENDCHAR
STARTCHAR 00CC
ENCODING 204
SWIDTH 1057 0
DWIDTH 55 0
BBX 52 52 2 -9
BITMAP
FFF80000000000
FFF80000000000
FFF80000000000
FFF80000000000
FFF80000000000
FFF80000000000
FFF80000000000
FFF80000000000
FFF80000000000
FFF80000000000
FFF80000000000
FFF80000000000
FFF80000000000
FFF80000000000
FFF80000000000
FFF80000000000
FFF80000000000
FFF80000000000
FFF80000000000
FFF80000000000
FFF80000000000
FFF80000000000
FFF80000000000
FFF80000000000
FFF80007FFC000
FFF80007FFC000
FFF80007FFC000
FFF80007FFC000
FFF80007FFC000
FFF80007FFC000
FFF80007FFC000
FFF80007FFC000
FFF80007FFC000
FFF80007FFC000
FFF80007FFC000
FFF80007FFC000
FFF80007FFC000
FFF80007FFC000
FFF80007FFC000
FFFFFFFFFFFFF0
FFFFFFFFFFFFF0
FFFFFFFFFFFFF0
FFFFFFFFFFFFF0
FFFFFFFFFFFFF0
FFFFFFFFFFFFF0
FFFFFFFFFFFFF0
FFFFFFFFFFFFF0
FFFFFFFFFFFFF0
FFFFFFFFFFFFF0
FFFFFFFFFFFFF0
FFFFFFFFFFFFF0
FFFFFFFFFFFFF0
ENDCHAR
STARTCHAR 00CD
ENCODING 205
SWIDTH 1057 0
DWIDTH 55 0
BBX 52 52 2 -9
BITMAP
FFF80000000000
FFF80000000000
FFF80000000000
FFF80000000000
FFF80000000000
FFF80000000000
FFF80000000000
FFF80000000000
FFF80000000000
FFF80000000000
FFF80000000000
FFF80000000000
FFF80000000000
FFF80000000000
FFF80000000000
FFF80000000000
FFF80000000000
FFF80000000000
FFF80000000000
FFF80000000000
FFF80000000000
FFF80000000000
FFF80000000000
FFF80000000000
FFF80007FFC000
FFF80007FFC000
FFF80007FFC000
FFF80007FFC000
FFF80007FFC000
FFF80007FFC000
FFF80007FFC000
FFFC0007FFC000
FFFC0007FFC000
FFFE0007FFC000
7FFF0007FFC000
7FFF8007FFC000
7FFFC007FFC000
3FFFE007FFC000
3FFFFE07FFC000
1FFFFFFFFFFFF0
0FFFFFFFFFFFF0
0FFFFFFFFFFFF0
07FFFFFFFFFFF0
03FFFFFFFFFFF0
01FFFFFFFFFFF0
00FFFFFFFFFFF0
007FFFFFFFFFF0
001FFFFFFFFFF0
0007FFFFFFFFF0
0001FFFFFFFFF0
00003FFFFFFFF0
0000007FFFFFF0
ENDCHAR
STARTCHAR 00CE
ENCODING 206
SWIDTH 1057 0
DWIDTH 55 0
BBX 52 52 2 -9
BITMAP
FFF80000000000
FFF80000000000
FFF80000000000
FFF80000000000
FFF80000000000
FFF80000000000
FFF80000000000
FFF80000000000
FFF80000000000
FFF80000000000
FFF80000000000
FFF80000000000
FFF80000000000
FFF80000000000
FFF80000000000
FFF80000000000
FFF80000000000
FFF80000000000
FFF80000000000
FFF80000000000
FFF80000000000
FFF80000000000
FFF80000000000
FFF80000000000
FFF80007FFC000
FFF80007FFC000
FFF80007FFC000
FFF80007FFC000
FFF80007FFC000
FFF80007FFC000
FFF80007FFC000
FFF80007FFC000
FFF80007FFC000
FFF80007FFC000
FFF80007FFC000
FFF80007FFC000
FFF80007FFC000
FFF80007FFC000
FFFE0007FFC000
FFFFFFFFFFFFF0
FFFFFFFFFFFFF0
7FFFFFFFFFFFF0
7FFFFFFFFFFFF0
7FFFFFFFFFFFF0
3FFFFFFFFFFFF0
1FFFFFFFFFFFF0
0FFFFFFFFFFFF0
07FFFFFFFFFFF0
03FFFFFFFFFFF0
00FFFFFFFFFFF0
003FFFFFFFFFF0
0001FFFFFFFFF0
ENDCHAR
STARTCHAR 00CF
ENCODING 207
SWIDTH 1057 0
DWIDTH 55 0
BBX 52 52 2 -9
BITMAP
003FFFFFFFFFF0
00FFFFFFFFFFF0
03FFFFFFFFFFF0
07FFFFFFFFFFF0
0FFFFFFFFFFFF0
1FFFFFFFFFFFF0
3FFFFFFFFFFFF0
3FFFFFFFFFFFF0
7FFFFFFFFFFFF0
7FFFFFFFFFFFF0
7FFFFFFFFFFFF0
FFFFFFFFFFFFF0
FFFFFFFFFFFFF0
FFFC0000000000
FFF80000000000
FFF80000000000
FFF80000000000
FFF80000000000
FFF80000000000
FFFFFFFFFFFFF0
FFFFFFFFFFFFF0
FFFFFFFFFFFFF0
FFFFFFFFFFFFF0
FFFFFFFFFFFFF0
FFFFFFFFFFFFF0
FFFFFFFFFFFFF0
FFFFFFFFFFFFF0
FFFFFFFFFFFFF0
FFFFFFFFFFFFF0
FFFFFFFFFFFFF0
FFFFFFFFFFFFF0
FFFFFFFFFFFFF0
FFF80000000000
FFF80000000000
FFF80000000000
FFF80000000000
FFF80000000000
FFF80000000000
FFFE0000000000
FFFFFFFFFFFFF0
FFFFFFFFFFFFF0
7FFFFFFFFFFFF0
7FFFFFFFFFFFF0
7FFFFFFFFFFFF0
3FFFFFFFFFFFF0
1FFFFFFFFFFFF0
0FFFFFFFFFFFF0
07FFFFFFFFFFF0
03FFFFFFFFFFF0
00FFFFFFFFFFF0
003FFFFFFFFFF0
0001FFFFFFFFF0
ENDCHAR
STARTCHAR 00D0
ENCODING 208
SWIDTH 1057 0
DWIDTH 55 0
BBX 52 52 2 -9
BITMAP
00000FFFFFFFF0
0000FFFFFFFFF0
0003FFFFFFFFF0
000FFFFFFFFFF0
003FFFFFFFFFF0
007FFFFFFFFFF0
01FFFFFFFFFFF0
03FFFFFFFFFFF0
07FFFFFFFFFFF0
07FFFFFFFFFFF0
0FFFFFFFFFFFF0
1FFFFFFFFFFFF0
1FFFFFFFFFFFF0
3FFFF800000000
3FFFE000000000
7FFF8000000000
7FFF0000000000
7FFE0000000000
FFFC0000000000
FFFFFFFFFFFFF0
FFFFFFFFFFFFF0
FFFFFFFFFFFFF0
FFFFFFFFFFFFF0
FFFFFFFFFFFFF0
FFFFFFFFFFFFF0
FFFFFFFFFFFFF0
FFFFFFFFFFFFF0
FFFFFFFFFFFFF0
FFFFFFFFFFFFF0
FFFFFFFFFFFFF0
FFFFFFFFFFFFF0
FFFFFFFFFFFFF0
FFFC0000000000
FFFE0000000000
7FFE0000000000
7FFF0000000000
7FFFC000000000
3FFFF000000000
3FFFFF00000000
1FFFFFFFFFFFF0
0FFFFFFFFFFFF0
0FFFFFFFFFFFF0
07FFFFFFFFFFF0
03FFFFFFFFFFF0
01FFFFFFFFFFF0
00FFFFFFFFFFF0
007FFFFFFFFFF0
001FFFFFFFFFF0
0007FFFFFFFFF0
0001FFFFFFFFF0
00003FFFFFFFF0
0000007FFFFFF0
ENDCHAR
STARTCHAR 00D1
ENCODING 209
SWIDTH 1057 0
DWIDTH 55 0
BBX 52 52 2 -9
BITMAP
FFFFFFFFFF8000
FFFFFFFFFFE000
FFFFFFFFFFF800
FFFFFFFFFFFC00
FFFFFFFFFFFE00
FFFFFFFFFFFF00
FFFFFFFFFFFF80
FFFFFFFFFFFF80
FFFFFFFFFFFFC0
FFFFFFFFFFFFC0
FFFFFFFFFFFFE0
FFFFFFFFFFFFE0
FFFFFFFFFFFFE0
0000000003FFE0
0000000003FFE0
0000000001FFF0
0000000001FFF0
0000000001FFF0
0000000001FFF0
FFFFFFFFFFFFF0
FFFFFFFFFFFFF0
FFFFFFFFFFFFF0
FFFFFFFFFFFFF0
FFFFFFFFFFFFF0
FFFFFFFFFFFFF0
FFFFFFFFFFFFF0
FFFFFFFFFFFFF0
FFFFFFFFFFFFF0
FFFFFFFFFFFFF0
FFFFFFFFFFFFF0
FFFFFFFFFFFFF0
FFFFFFFFFFFFF0
0000000001FFF0
0000000001FFF0
0000000001FFF0
0000000001FFF0
0000000003FFF0
0000000003FFE0
000000000FFFE0
FFFFFFFFFFFFE0
FFFFFFFFFFFFE0
FFFFFFFFFFFFE0
FFFFFFFFFFFFC0
FFFFFFFFFFFFC0
FFFFFFFFFFFF80
FFFFFFFFFFFF00
FFFFFFFFFFFF00
FFFFFFFFFFFE00
FFFFFFFFFFF800
FFFFFFFFFFE000
FFFFFFFFFF8000
FFFFFFFFF00000
ENDCHAR
STARTCHAR 00D2
ENCODING 210
SWIDTH 1057 0
DWIDTH 55 0
BBX 52 52 2 -9
BITMAP
FFFFFFFF000000
FFFFFFFFE00000
FFFFFFFFFC0000
FFFFFFFFFF0000
FFFFFFFFFF8000
FFFFFFFFFFE000
FFFFFFFFFFF000
FFFFFFFFFFF800
FFFFFFFFFFFC00
FFFFFFFFFFFE00
FFFFFFFFFFFE00
FFFFFFFFFFFF00
FFFFFFFFFFFF00
00000003FFFF80
00000000FFFF80
000000003FFFC0
000000001FFFC0
000000000FFFE0
0000000007FFE0
FFFFFFFFFFFFE0
FFFFFFFFFFFFE0
FFFFFFFFFFFFE0
FFFFFFFFFFFFE0
FFFFFFFFFFFFE0
FFFFFFFFFFFFF0
FFFFFFFFFFFFF0
FFFFFFFFFFFFF0
FFFFFFFFFFFFF0
FFFFFFFFFFFFE0
FFFFFFFFFFFFE0
FFFFFFFFFFFFE0
FFFFFFFFFFFFE0
0000000007FFE0
000000000FFFE0
000000000FFFC0
000000001FFFC0
000000007FFFC0
00000001FFFF80
0000001FFFFF80
FFFFFFFFFFFF00
FFFFFFFFFFFF00
FFFFFFFFFFFE00
FFFFFFFFFFFC00
FFFFFFFFFFF800
FFFFFFFFFFF000
FFFFFFFFFFE000
FFFFFFFFFFC000
FFFFFFFFFF0000
FFFFFFFFFC0000
FFFFFFFFF00000
FFFFFFFF800000
FFFFFFC0000000
ENDCHAR
STARTCHAR 00D3
ENCODING 211
SWIDTH 1057 0
DWIDTH 55 0
BBX 52 52 2 -9
BITMAP
FFFFF800000000
FFFFFF00000000
FFFFFF80000000
FFFFFFE0000000
FFFFFFF0000000
FFFFFFF8000000
FFFFFFF8000000
FFFFFFFC000000
FFFFFFFC000000
FFFFFFFE000000
FFFFFFFE000000
FFFFFFFE000000
FFFFFFFF000000
00003FFF000000
00001FFF000000
00001FFF000000
00001FFF000000
00001FFF000000
00001FFF000000
00001FFFFFFFF0
00001FFFFFFFF0
00001FFFFFFFF0
00001FFFFFFFF0
00001FFFFFFFF0
00001FFFFFFFF0
00001FFFFFFFF0
00001FFFFFFFF0
00001FFFFFFFF0
00001FFFFFFFF0
00001FFFFFFFF0
00001FFFFFFFF0
00001FFFFFFFF0
00001FFF000000
00001FFF000000
00001FFF000000
00001FFF000000
00001FFF000000
00003FFF000000
00007FFF000000
FFFFFFFF000000
FFFFFFFE000000
FFFFFFFE000000
FFFFFFFE000000
FFFFFFFC000000
FFFFFFFC000000
FFFFFFF8000000
FFFFFFF0000000
FFFFFFE0000000
FFFFFFC0000000
FFFFFF00000000
FFFFFC00000000
FFFF8000000000
ENDCHAR
STARTCHAR 00D4
ENCODING 212
SWIDTH 1057 0
DWIDTH 55 0
BBX 52 52 2 -9
BITMAP
00001FFF000000
0000FFFFE00000
0003FFFFF80000
000FFFFFFE0000
003FFFFFFF8000
007FFFFFFFC000
00FFFFFFFFE000
01FFFFFFFFF000
03FFFFFFFFF800
07FFFFFFFFFC00
0FFFFFFFFFFE00
0FFFFFFFFFFE00
1FFFFFFFFFFF00
1FFFFE03FFFF80
3FFFFF00FFFF80
3FFFFF803FFFC0
7FFFFFC01FFFC0
7FFFFFE00FFFC0
FFFFFFF00FFFE0
FFFFFFF807FFE0
FFFFFFFC07FFE0
FFFFFFFE03FFE0
FFFFFFFF03FFE0
FFFBFFFF83FFE0
FFF9FFFFC1FFF0
FFF8FFFFE1FFF0
FFF87FFFF1FFF0
FFF83FFFFBFFF0
FFF81FFFFFFFE0
FFF80FFFFFFFE0
FFF807FFFFFFE0
FFFC03FFFFFFE0
FFFC01FFFFFFE0
7FFE00FFFFFFC0
7FFF007FFFFFC0
7FFF803FFFFFC0
3FFFC01FFFFF80
3FFFF00FFFFF80
1FFFFE1FFFFF00
0FFFFFFFFFFF00
0FFFFFFFFFFE00
07FFFFFFFFFC00
03FFFFFFFFF800
01FFFFFFFFF000
00FFFFFFFFE000
007FFFFFFFC000
003FFFFFFF8000
001FFFFFFF0000
0007FFFFFC0000
0001FFFFF00000
00003FFF800000
00000040000000
ENDCHAR
STARTCHAR 00E6
ENCODING 230
SWIDTH 1057 0
DWIDTH 55 0
BBX 52 52 2 -9
BITMAP
FFF8000001FFF0
FFF8000001FFF0
FFF8000001FFF0
FFF8000001FFF0
FFF8000001FFF0
FFF8000001FFF0
FFF8000001FFF0
FFF8000001FFF0
FFF8000001FFF0
FFF81FFF01FFF0
FFF81FFF01FFF0
FFF81FFF01FFF0
FFF81FFF01FFF0
FFF81FFF01FFF0
FFF81FFF01FFF0
FFF81FFF01FFF0
FFF81FFF01FFE0
FFF81FFF03FFE0
FFFC1FFF03FFE0
FFFFFFFFFFFFE0
FFFFFFFFFFFFE0
7FFFFFFFFFFFE0
7FFFFFFFFFFFC0
7FFFFFFFFFFFC0
3FFFFFFFFFFF80
3FFFFFFFFFFF80
3FFFFFFFFFFF00
7FFFFFFFFFFE00
7FFFFFFFFFFC00
FFFFFFFFFFF800
FFFFFFFFFFE000
FFFFFFFFFF8000
FFFE1FFF000000
FFF81FFF000000
FFF81FFF000000
FFF81FFF000000
FFF81FFF000000
FFF81FFF000000
FFFE1FFF000000
FFFFFFFFFFFFF0
FFFFFFFFFFFFF0
7FFFFFFFFFFFF0
7FFFFFFFFFFFF0
7FFFFFFFFFFFF0
3FFFFFFFFFFFF0
1FFFFFFFFFFFF0
0FFFFFFFFFFFF0
07FFFFFFFFFFF0
03FFFFFFFFFFF0
00FFFFFFFFFFF0
003FFFFFFFFFF0
0001FFFFFFFFF0
ENDCHAR
STARTCHAR E000
ENCODING 57344
SWIDTH 0 0
DWIDTH 0 0
BBX 0 0 0 0
BITMAP
ENDCHAR
STARTCHAR E001
ENCODING 57345
SWIDTH 500 0
DWIDTH 26 0
BBX 0 0 0 0
BITMAP
ENDCHAR
ENDFONT
